<svg xmlns="http://www.w3.org/2000/svg" xmlns:xlink="http://www.w3.org/1999/xlink" width="500" zoomAndPan="magnify" viewBox="0 0 375 374.999991" height="500" preserveAspectRatio="xMidYMid meet" version="1.0"><defs><clipPath id="7bfb14639a"><path d="M 118.039062 111.207031 L 237.515625 111.207031 L 237.515625 187.5 L 118.039062 187.5 Z M 118.039062 111.207031 " clip-rule="nonzero"/></clipPath><clipPath id="bbc7ad14cc"><path d="M 87.667969 137 L 96 137 L 96 142 L 87.667969 142 Z M 87.667969 137 " clip-rule="nonzero"/></clipPath><clipPath id="7432fb57c2"><path d="M 164.929688 37.5 L 287.128906 37.5 L 287.128906 98.214844 L 164.929688 98.214844 Z M 164.929688 37.5 " clip-rule="nonzero"/></clipPath><clipPath id="ab50aa26b1"><path d="M 244.699219 226.8125 L 309.601562 226.8125 L 309.601562 348.671875 L 244.699219 348.671875 Z M 244.699219 226.8125 " clip-rule="nonzero"/></clipPath><clipPath id="c3ad0186fd"><path d="M 247 187.5 L 285 187.5 L 285 225 L 247 225 Z M 247 187.5 " clip-rule="nonzero"/></clipPath><clipPath id="cc666ceb98"><path d="M 286 226 L 337.5 226 L 337.5 286 L 286 286 Z M 286 226 " clip-rule="nonzero"/></clipPath><clipPath id="4bd4c13573"><path d="M 37.5 200 L 115 200 L 115 338 L 37.5 338 Z M 37.5 200 " clip-rule="nonzero"/></clipPath></defs><rect x="-37.5" width="450" fill="#ffffff" y="-37.499999" height="449.999989" fill-opacity="1"/><rect x="-37.5" width="450" fill="#ffffff" y="-37.499999" height="449.999989" fill-opacity="1"/><rect x="-37.5" width="450" fill="#ffffff" y="-37.499999" height="449.999989" fill-opacity="1"/><path fill="#0ed3e8" d="M 0 103.660156 L 0 20.152344 L 118.136719 20.152344 L 118.136719 23.085938 L 2.902344 23.085938 L 2.902344 103.660156 Z M 256.894531 20.152344 L 375 20.152344 L 375 103.660156 L 372.097656 103.660156 L 372.097656 23.085938 L 256.894531 23.085938 Z M 375 271.371094 L 375 354.847656 L 256.894531 354.847656 L 256.894531 351.914062 L 372.097656 351.914062 L 372.097656 271.371094 Z M 118.136719 354.847656 L 0 354.847656 L 0 271.371094 L 2.902344 271.371094 L 2.902344 351.914062 L 118.136719 351.914062 Z M 118.136719 354.847656 " fill-opacity="1" fill-rule="nonzero"/><path fill="#0ed3e8" d="M 20.152344 103.660156 L 20.152344 0 L 116.179688 0 L 116.179688 2.902344 L 23.085938 2.902344 L 23.085938 103.660156 Z M 258.820312 0 L 354.847656 0 L 354.847656 103.660156 L 351.914062 103.660156 L 351.914062 2.902344 L 258.820312 2.902344 Z M 354.847656 271.371094 L 354.847656 375 L 258.820312 375 L 258.820312 372.097656 L 351.914062 372.097656 L 351.914062 271.371094 Z M 116.179688 375 L 20.152344 375 L 20.152344 271.371094 L 23.085938 271.371094 L 23.085938 372.097656 L 116.179688 372.097656 Z M 116.179688 375 " fill-opacity="1" fill-rule="nonzero"/><g clip-path="url(#7bfb14639a)"><path fill="#2c2829" d="M 210.125 183.574219 C 205.46875 183.574219 201.679688 179.78125 201.679688 175.117188 C 201.679688 170.457031 205.46875 166.664062 210.125 166.664062 C 214.785156 166.664062 218.574219 170.457031 218.574219 175.117188 C 218.574219 179.78125 214.785156 183.574219 210.125 183.574219 Z M 145.96875 183.574219 C 141.3125 183.574219 137.523438 179.78125 137.523438 175.121094 C 137.523438 175.121094 137.523438 175.121094 137.523438 175.117188 C 137.523438 170.457031 141.3125 166.664062 145.96875 166.664062 C 150.628906 166.664062 154.417969 170.457031 154.417969 175.117188 C 154.417969 179.78125 150.628906 183.574219 145.96875 183.574219 Z M 232.851562 150.117188 L 227.519531 146.542969 L 221.480469 133.929688 C 221.292969 133.53125 218.050781 126.417969 209.882812 126.417969 L 194.703125 126.417969 L 194.703125 118.46875 C 194.703125 114.472656 191.453125 111.222656 187.457031 111.222656 L 125.300781 111.222656 C 124.21875 111.222656 123.339844 112.101562 123.339844 113.183594 C 123.339844 114.269531 124.21875 115.148438 125.300781 115.148438 L 187.457031 115.148438 C 189.289062 115.148438 190.777344 116.636719 190.777344 118.46875 L 190.777344 149.808594 L 153 149.785156 C 151.917969 149.785156 151.039062 150.664062 151.039062 151.75 C 151.039062 152.832031 151.914062 153.710938 153 153.714844 L 190.777344 153.734375 L 190.777344 162.132812 C 190.777344 163.214844 191.65625 164.09375 192.738281 164.09375 C 193.824219 164.09375 194.703125 163.214844 194.703125 162.132812 L 194.703125 130.34375 L 209.78125 130.34375 C 215.761719 130.378906 217.941406 135.625 217.941406 135.625 L 224.210938 148.722656 C 224.363281 149.039062 224.597656 149.3125 224.886719 149.507812 L 230.664062 153.378906 C 230.789062 153.464844 232.691406 154.835938 233.359375 157.785156 L 230.640625 157.785156 C 229.558594 157.785156 228.679688 158.664062 228.679688 159.75 C 228.679688 160.835938 229.558594 161.714844 230.640625 161.714844 L 233.585938 161.714844 L 233.585938 169.832031 C 233.585938 171.664062 232.097656 173.15625 230.269531 173.15625 C 230.265625 173.15625 230.265625 173.15625 230.261719 173.15625 L 222.339844 173.15625 C 221.398438 167.257812 216.28125 162.738281 210.125 162.738281 C 203.972656 162.738281 198.855469 167.257812 197.910156 173.15625 L 158.183594 173.15625 C 157.242188 167.257812 152.125 162.738281 145.96875 162.738281 C 139.816406 162.738281 134.699219 167.257812 133.757812 173.15625 L 125.304688 173.15625 C 125.304688 173.15625 125.300781 173.15625 125.300781 173.15625 C 123.46875 173.15625 121.980469 171.664062 121.980469 169.832031 L 121.980469 159.75 C 121.980469 158.664062 121.101562 157.785156 120.019531 157.785156 C 118.933594 157.785156 118.058594 158.664062 118.058594 159.75 L 118.058594 169.832031 C 118.058594 173.828125 121.300781 177.074219 125.289062 177.082031 C 125.292969 177.082031 125.296875 177.082031 125.300781 177.082031 L 133.757812 177.082031 C 134.699219 182.980469 139.816406 187.5 145.96875 187.5 C 152.125 187.5 157.242188 182.980469 158.183594 177.082031 L 197.910156 177.082031 C 198.855469 182.980469 203.972656 187.5 210.125 187.5 C 216.28125 187.5 221.398438 182.980469 222.339844 177.082031 L 230.269531 177.082031 C 230.273438 177.082031 230.277344 177.082031 230.277344 177.082031 C 234.265625 177.074219 237.511719 173.828125 237.511719 169.832031 L 237.511719 159.90625 C 237.511719 153.371094 233.15625 150.324219 232.851562 150.117188 " fill-opacity="1" fill-rule="nonzero"/></g><path fill="#2c2829" d="M 210.125 138.039062 C 211.210938 138.039062 212.085938 137.160156 212.085938 136.078125 C 212.085938 134.992188 211.210938 134.113281 210.125 134.113281 C 206.132812 134.113281 202.882812 137.363281 202.882812 141.363281 L 202.882812 146.488281 C 202.882812 150.484375 206.132812 153.734375 210.125 153.734375 L 219.320312 153.734375 C 220.40625 153.734375 221.285156 152.855469 221.285156 151.773438 C 221.285156 150.6875 220.40625 149.808594 219.320312 149.808594 L 210.125 149.808594 C 208.296875 149.808594 206.804688 148.320312 206.804688 146.488281 L 206.804688 141.363281 C 206.804688 139.53125 208.296875 138.039062 210.125 138.039062 " fill-opacity="1" fill-rule="nonzero"/><path fill="#2c2829" d="M 102.273438 127.628906 L 106.644531 127.628906 C 107.726562 127.628906 108.605469 126.75 108.605469 125.664062 C 108.605469 124.582031 107.726562 123.699219 106.644531 123.699219 L 102.273438 123.699219 C 101.191406 123.699219 100.3125 124.582031 100.3125 125.664062 C 100.3125 126.75 101.191406 127.628906 102.273438 127.628906 " fill-opacity="1" fill-rule="nonzero"/><path fill="#2c2829" d="M 110.425781 115.148438 L 114.796875 115.148438 C 115.882812 115.148438 116.761719 114.269531 116.761719 113.183594 C 116.761719 112.101562 115.882812 111.21875 114.796875 111.21875 L 110.425781 111.21875 C 109.34375 111.21875 108.464844 112.101562 108.464844 113.183594 C 108.464844 114.269531 109.34375 115.148438 110.425781 115.148438 " fill-opacity="1" fill-rule="nonzero"/><path fill="#2c2829" d="M 144.917969 125.664062 C 144.917969 124.582031 144.039062 123.699219 142.957031 123.699219 L 117.402344 123.699219 C 116.320312 123.699219 115.441406 124.582031 115.441406 125.664062 C 115.441406 126.75 116.320312 127.628906 117.402344 127.628906 L 142.957031 127.628906 C 144.039062 127.628906 144.917969 126.75 144.917969 125.664062 " fill-opacity="1" fill-rule="nonzero"/><path fill="#2c2829" d="M 107.765625 139.484375 C 107.765625 138.398438 106.886719 137.519531 105.804688 137.519531 L 102.441406 137.519531 C 101.359375 137.519531 100.480469 138.398438 100.480469 139.484375 C 100.480469 140.570312 101.359375 141.449219 102.441406 141.449219 L 105.804688 141.449219 C 106.886719 141.449219 107.765625 140.570312 107.765625 139.484375 " fill-opacity="1" fill-rule="nonzero"/><g clip-path="url(#bbc7ad14cc)"><path fill="#2c2829" d="M 93.367188 137.519531 L 89.667969 137.519531 C 88.582031 137.519531 87.703125 138.398438 87.703125 139.484375 C 87.703125 140.570312 88.582031 141.449219 89.667969 141.449219 L 93.367188 141.449219 C 94.449219 141.449219 95.328125 140.570312 95.328125 139.484375 C 95.328125 138.398438 94.449219 137.519531 93.367188 137.519531 " fill-opacity="1" fill-rule="nonzero"/></g><path fill="#2c2829" d="M 115.554688 137.519531 C 114.472656 137.519531 113.59375 138.398438 113.59375 139.484375 C 113.59375 140.570312 114.472656 141.449219 115.554688 141.449219 L 131.1875 141.449219 C 132.273438 141.449219 133.148438 140.570312 133.148438 139.484375 C 133.148438 138.398438 132.273438 137.519531 131.1875 137.519531 L 115.554688 137.519531 " fill-opacity="1" fill-rule="nonzero"/><path fill="#2c2829" d="M 129.871094 151.773438 C 129.871094 150.6875 128.992188 149.808594 127.910156 149.808594 L 108.074219 149.808594 C 106.992188 149.808594 106.113281 150.6875 106.113281 151.773438 C 106.113281 152.855469 106.992188 153.734375 108.074219 153.734375 L 127.910156 153.734375 C 128.992188 153.734375 129.871094 152.855469 129.871094 151.773438 " fill-opacity="1" fill-rule="nonzero"/><path fill="#2c2829" d="M 141.359375 149.808594 L 139.003906 149.808594 C 137.921875 149.808594 137.042969 150.6875 137.042969 151.773438 C 137.042969 152.855469 137.921875 153.734375 139.003906 153.734375 L 141.359375 153.734375 C 142.441406 153.734375 143.320312 152.855469 143.320312 151.773438 C 143.320312 150.6875 142.441406 149.808594 141.359375 149.808594 " fill-opacity="1" fill-rule="nonzero"/><path fill="#2c2829" d="M 145.96875 171.832031 C 144.160156 171.832031 142.6875 173.308594 142.6875 175.117188 C 142.6875 176.929688 144.160156 178.402344 145.96875 178.402344 C 147.78125 178.402344 149.253906 176.929688 149.253906 175.117188 C 149.253906 173.308594 147.78125 171.832031 145.96875 171.832031 " fill-opacity="1" fill-rule="nonzero"/><path fill="#2c2829" d="M 210.125 171.832031 C 208.316406 171.832031 206.84375 173.308594 206.84375 175.117188 C 206.84375 176.929688 208.316406 178.402344 210.125 178.402344 C 211.9375 178.402344 213.410156 176.929688 213.410156 175.117188 C 213.410156 173.308594 211.9375 171.832031 210.125 171.832031 " fill-opacity="1" fill-rule="nonzero"/><g clip-path="url(#7432fb57c2)"><path fill="#2c2829" d="M 286.527344 94.835938 L 255.484375 65.027344 C 255.484375 65.027344 255.480469 65.023438 255.480469 65.023438 L 227.382812 38.046875 C 227.292969 37.957031 227.191406 37.878906 227.082031 37.808594 C 226.320312 37.320312 225.332031 37.417969 224.679688 38.046875 L 205.511719 56.445312 L 205.511719 49.472656 L 206.410156 49.472656 C 207.488281 49.472656 208.367188 48.597656 208.367188 47.519531 L 208.367188 39.457031 C 208.367188 38.378906 207.488281 37.5 206.410156 37.5 L 182.816406 37.5 C 181.738281 37.5 180.859375 38.378906 180.859375 39.457031 L 180.859375 47.519531 C 180.859375 48.597656 181.738281 49.472656 182.816406 49.472656 L 183.714844 49.472656 L 183.714844 77.378906 L 165.535156 94.835938 C 164.757812 95.582031 164.730469 96.820312 165.476562 97.601562 C 165.847656 97.988281 166.347656 98.203125 166.886719 98.203125 C 167.394531 98.203125 167.875 98.007812 168.238281 97.65625 L 187.019531 79.625 C 187.027344 79.617188 187.035156 79.609375 187.042969 79.601562 C 187.066406 79.578125 187.089844 79.550781 187.113281 79.523438 L 187.125 79.515625 C 187.136719 79.5 187.152344 79.484375 187.164062 79.46875 C 187.183594 79.445312 187.203125 79.417969 187.222656 79.394531 L 187.242188 79.367188 C 187.257812 79.351562 187.269531 79.332031 187.28125 79.316406 C 187.296875 79.289062 187.3125 79.265625 187.328125 79.238281 L 187.347656 79.210938 C 187.359375 79.191406 187.371094 79.171875 187.382812 79.152344 C 187.398438 79.125 187.410156 79.09375 187.425781 79.066406 L 187.4375 79.035156 C 187.449219 79.019531 187.457031 79 187.464844 78.984375 C 187.480469 78.945312 187.492188 78.910156 187.503906 78.871094 L 187.511719 78.851562 C 187.519531 78.835938 187.523438 78.820312 187.53125 78.804688 C 187.542969 78.765625 187.550781 78.726562 187.5625 78.6875 L 187.566406 78.675781 C 187.570312 78.65625 187.574219 78.636719 187.578125 78.621094 C 187.585938 78.585938 187.589844 78.554688 187.597656 78.519531 L 187.601562 78.492188 C 187.605469 78.472656 187.605469 78.449219 187.609375 78.429688 C 187.613281 78.402344 187.613281 78.371094 187.617188 78.34375 L 187.617188 78.324219 C 187.617188 78.300781 187.621094 78.277344 187.621094 78.246094 C 187.621094 78.234375 187.621094 78.222656 187.621094 78.214844 L 187.621094 49.441406 C 188.53125 49.277344 189.226562 48.476562 189.226562 47.519531 C 189.226562 46.4375 188.347656 45.5625 187.269531 45.5625 L 184.769531 45.5625 L 184.769531 41.414062 L 204.457031 41.414062 L 204.457031 45.5625 L 195.210938 45.5625 C 194.132812 45.5625 193.253906 46.4375 193.253906 47.519531 C 193.253906 48.597656 194.132812 49.472656 195.210938 49.472656 L 201.605469 49.472656 L 201.605469 60.199219 L 193.953125 67.546875 C 193.578125 67.910156 193.363281 68.394531 193.351562 68.917969 C 193.339844 69.441406 193.535156 69.933594 193.894531 70.3125 C 194.269531 70.699219 194.769531 70.914062 195.304688 70.914062 C 195.8125 70.914062 196.292969 70.71875 196.660156 70.371094 L 199.28125 67.851562 C 199.285156 67.851562 199.285156 67.847656 199.285156 67.847656 L 226.03125 42.167969 L 283.820312 97.65625 C 284.1875 98.007812 284.667969 98.203125 285.175781 98.203125 C 285.710938 98.203125 286.210938 97.988281 286.585938 97.601562 C 287.332031 96.820312 287.304688 95.582031 286.527344 94.835938 " fill-opacity="1" fill-rule="nonzero"/></g><path fill="#2c2829" d="M 270.898438 94.289062 C 269.820312 94.289062 268.945312 95.167969 268.945312 96.246094 L 268.945312 149.824219 L 248.824219 149.816406 C 247.746094 149.816406 246.871094 150.695312 246.871094 151.773438 C 246.871094 152.851562 247.746094 153.726562 248.824219 153.726562 L 270.898438 153.734375 C 271.976562 153.734375 272.851562 152.859375 272.851562 151.78125 L 272.851562 96.246094 C 272.851562 95.167969 271.976562 94.289062 270.898438 94.289062 " fill-opacity="1" fill-rule="nonzero"/><path fill="#2c2829" d="M 241.371094 97.839844 L 210.6875 97.839844 C 209.605469 97.839844 208.726562 98.71875 208.726562 99.804688 L 208.726562 118.28125 C 208.726562 119.367188 209.605469 120.246094 210.6875 120.246094 C 211.773438 120.246094 212.652344 119.367188 212.652344 118.28125 L 212.652344 101.765625 L 239.410156 101.765625 L 239.410156 143.269531 C 239.410156 144.355469 240.289062 145.234375 241.371094 145.234375 C 242.457031 145.234375 243.335938 144.355469 243.335938 143.269531 L 243.335938 99.804688 C 243.335938 98.71875 242.457031 97.839844 241.371094 97.839844 " fill-opacity="1" fill-rule="nonzero"/><path fill="#2c2829" d="M 183.234375 102.054688 L 183.234375 97 C 183.234375 95.914062 182.355469 95.035156 181.273438 95.035156 C 180.1875 95.035156 179.3125 95.914062 179.3125 97 L 179.3125 102.054688 C 179.3125 103.140625 180.1875 104.019531 181.273438 104.019531 C 182.355469 104.019531 183.234375 103.140625 183.234375 102.054688 " fill-opacity="1" fill-rule="nonzero"/><g clip-path="url(#ab50aa26b1)"><path fill="#2e2d2c" d="M 290.574219 300.0625 C 290.011719 297.558594 288.582031 295.320312 286.542969 293.765625 L 269.738281 280.929688 C 268.816406 280.226562 267.496094 280.402344 266.792969 281.324219 C 266.085938 282.246094 266.265625 283.566406 267.1875 284.269531 L 283.992188 297.109375 C 285.246094 298.066406 286.128906 299.4375 286.46875 300.976562 L 294.351562 336.308594 C 295.15625 339.914062 292.875 343.5 289.269531 344.304688 C 288.789062 344.414062 288.292969 344.46875 287.804688 344.46875 C 284.699219 344.46875 281.953125 342.265625 281.277344 339.226562 L 274.09375 307.027344 C 273.988281 306.546875 273.714844 306.121094 273.324219 305.820312 L 253.832031 290.84375 C 253.796875 290.808594 253.757812 290.777344 253.714844 290.742188 C 251.507812 289.050781 248.929688 285.746094 248.929688 282.011719 L 248.929688 241.742188 C 248.929688 235.875 253.703125 231.097656 259.570312 231.097656 C 263.785156 231.097656 267.625 233.722656 269.59375 237.941406 C 269.601562 237.957031 269.609375 237.96875 269.617188 237.984375 C 269.632812 238.027344 269.648438 238.066406 269.667969 238.109375 L 278.433594 257.292969 C 278.773438 258.027344 279.503906 258.507812 280.3125 258.519531 L 300.527344 258.855469 C 300.550781 258.855469 300.578125 258.855469 300.605469 258.855469 C 303.277344 258.941406 305.417969 261.1875 305.371094 263.863281 C 305.328125 266.550781 303.125 268.707031 300.445312 268.707031 C 300.417969 268.707031 300.390625 268.707031 300.363281 268.707031 L 275.714844 268.300781 C 275.691406 268.300781 275.667969 268.300781 275.640625 268.296875 C 273.757812 268.238281 272.097656 267.136719 271.316406 265.421875 L 262.136719 245.285156 C 261.65625 244.230469 260.40625 243.765625 259.351562 244.246094 C 258.296875 244.726562 257.828125 245.972656 258.3125 247.03125 L 267.492188 267.167969 C 268.199219 268.71875 269.324219 270.035156 270.742188 270.976562 C 272.160156 271.917969 273.808594 272.445312 275.503906 272.5 C 275.554688 272.5 275.601562 272.503906 275.644531 272.503906 L 300.296875 272.910156 C 300.347656 272.910156 300.398438 272.910156 300.449219 272.910156 C 305.410156 272.910156 309.492188 268.914062 309.574219 263.929688 C 309.617188 261.515625 308.71875 259.226562 307.054688 257.480469 C 305.386719 255.734375 303.148438 254.730469 300.734375 254.652344 C 300.691406 254.652344 300.644531 254.652344 300.597656 254.652344 L 281.707031 254.339844 L 273.492188 236.363281 C 273.484375 236.339844 273.472656 236.320312 273.460938 236.300781 C 273.445312 236.253906 273.425781 236.207031 273.40625 236.164062 C 272.160156 233.492188 270.277344 231.21875 267.964844 229.585938 C 265.46875 227.824219 262.566406 226.894531 259.570312 226.894531 C 251.386719 226.894531 244.726562 233.554688 244.726562 241.742188 L 244.726562 282.011719 C 244.726562 284.308594 245.398438 286.699219 246.667969 288.925781 C 247.765625 290.855469 249.261719 292.589844 251 293.957031 C 251.042969 293.996094 251.09375 294.039062 251.140625 294.078125 L 270.15625 308.6875 L 277.171875 340.140625 C 277.714844 342.574219 279.089844 344.765625 281.039062 346.3125 C 282.964844 347.832031 285.367188 348.671875 287.804688 348.671875 C 288.601562 348.671875 289.402344 348.582031 290.183594 348.410156 C 296.054688 347.101562 299.761719 341.261719 298.453125 335.394531 L 290.574219 300.0625 " fill-opacity="1" fill-rule="nonzero"/></g><path fill="#2e2d2c" d="M 259.757812 308.078125 C 258.648438 307.730469 257.46875 308.34375 257.117188 309.449219 L 255.597656 314.273438 C 255.105469 315.785156 254.085938 317.078125 252.726562 317.914062 L 223.230469 335.992188 C 222.171875 336.640625 220.964844 336.980469 219.738281 336.980469 C 217.382812 336.980469 215.246094 335.785156 214.019531 333.78125 C 213.082031 332.257812 212.796875 330.457031 213.214844 328.71875 C 213.632812 326.980469 214.703125 325.507812 216.226562 324.570312 L 242.953125 308.191406 C 243.382812 307.929688 243.703125 307.519531 243.855469 307.042969 L 246.273438 299.503906 C 246.628906 298.398438 246.019531 297.214844 244.914062 296.859375 C 243.808594 296.503906 242.625 297.113281 242.269531 298.21875 L 240.089844 305.015625 L 214.03125 320.988281 C 211.550781 322.507812 209.808594 324.90625 209.125 327.738281 C 208.449219 330.570312 208.914062 333.496094 210.433594 335.980469 C 211.425781 337.597656 212.828125 338.933594 214.484375 339.839844 C 216.089844 340.71875 217.90625 341.1875 219.738281 341.1875 C 221.742188 341.1875 223.707031 340.628906 225.425781 339.578125 L 254.921875 321.496094 C 257.136719 320.140625 258.796875 318.03125 259.597656 315.558594 C 259.601562 315.554688 259.601562 315.550781 259.601562 315.546875 L 261.128906 310.714844 C 261.476562 309.609375 260.863281 308.429688 259.757812 308.078125 " fill-opacity="1" fill-rule="nonzero"/><g clip-path="url(#c3ad0186fd)"><path fill="#2e2d2c" d="M 265.898438 191.785156 C 273.847656 191.785156 280.3125 198.25 280.3125 206.199219 C 280.3125 214.144531 273.847656 220.613281 265.898438 220.613281 C 257.949219 220.613281 251.484375 214.144531 251.484375 206.199219 C 251.484375 198.25 257.949219 191.785156 265.898438 191.785156 Z M 265.898438 224.816406 C 270.871094 224.816406 275.546875 222.878906 279.0625 219.363281 C 282.578125 215.847656 284.515625 211.171875 284.515625 206.199219 C 284.515625 201.226562 282.578125 196.550781 279.0625 193.03125 C 275.546875 189.515625 270.871094 187.578125 265.898438 187.578125 C 260.925781 187.578125 256.25 189.515625 252.734375 193.03125 C 249.21875 196.550781 247.277344 201.226562 247.277344 206.199219 C 247.277344 211.171875 249.21875 215.847656 252.734375 219.363281 C 256.25 222.878906 260.925781 224.816406 265.898438 224.816406 " fill-opacity="1" fill-rule="nonzero"/></g><g clip-path="url(#cc666ceb98)"><path fill="#2e2d2c" d="M 335.398438 226.898438 L 288.191406 226.898438 C 287.632812 226.898438 287.097656 227.121094 286.703125 227.515625 C 286.308594 227.910156 286.085938 228.445312 286.085938 229.003906 L 286.105469 243.601562 C 286.105469 244.761719 287.046875 245.703125 288.207031 245.703125 C 288.207031 245.703125 288.207031 245.703125 288.210938 245.703125 C 289.371094 245.699219 290.3125 244.757812 290.308594 243.597656 L 290.296875 231.101562 L 333.296875 231.101562 L 333.296875 280.929688 L 290.300781 280.929688 L 290.308594 279.710938 C 290.316406 278.546875 289.378906 277.601562 288.21875 277.597656 C 288.214844 277.597656 288.210938 277.597656 288.207031 277.597656 C 287.050781 277.597656 286.113281 278.53125 286.105469 279.6875 L 286.085938 283.019531 C 286.085938 283.582031 286.308594 284.117188 286.699219 284.515625 C 287.09375 284.910156 287.632812 285.132812 288.191406 285.132812 L 335.398438 285.132812 C 336.558594 285.132812 337.5 284.191406 337.5 283.03125 L 337.5 229 C 337.5 227.839844 336.558594 226.898438 335.398438 226.898438 " fill-opacity="1" fill-rule="nonzero"/></g><path fill="#2e2d2c" d="M 316.042969 242.171875 C 317.203125 242.171875 318.144531 241.230469 318.144531 240.070312 C 318.144531 238.910156 317.203125 237.96875 316.042969 237.96875 L 307.496094 237.96875 C 306.332031 237.96875 305.390625 238.910156 305.390625 240.070312 C 305.390625 241.230469 306.332031 242.171875 307.496094 242.171875 L 316.042969 242.171875 " fill-opacity="1" fill-rule="nonzero"/><path fill="#2e2d2c" d="M 64.066406 243.835938 C 64.964844 243.1875 66.019531 242.84375 67.117188 242.84375 C 67.398438 242.84375 67.679688 242.867188 67.960938 242.910156 C 69.335938 243.132812 70.546875 243.878906 71.367188 245.011719 L 97.410156 280.710938 C 97.800781 281.253906 98.4375 281.578125 99.105469 281.578125 C 99.351562 281.578125 99.59375 281.535156 99.820312 281.453125 C 100.003906 281.386719 100.175781 281.292969 100.332031 281.179688 C 101.265625 280.503906 101.476562 279.195312 100.800781 278.257812 L 74.761719 242.5625 L 74.753906 242.558594 C 73.28125 240.519531 71.105469 239.179688 68.625 238.78125 C 68.121094 238.699219 67.613281 238.660156 67.109375 238.660156 C 65.132812 238.660156 63.234375 239.277344 61.617188 240.445312 C 59.578125 241.917969 58.238281 244.097656 57.839844 246.578125 C 57.445312 249.023438 58.015625 251.472656 59.4375 253.492188 L 59.4375 253.496094 L 94.515625 301.691406 C 94.910156 302.234375 95.542969 302.554688 96.210938 302.554688 C 96.457031 302.554688 96.699219 302.515625 96.925781 302.429688 C 97.109375 302.363281 97.277344 302.273438 97.4375 302.160156 C 97.890625 301.832031 98.1875 301.347656 98.277344 300.796875 C 98.363281 300.246094 98.234375 299.691406 97.90625 299.238281 L 62.898438 251.136719 L 62.894531 251.132812 C 62.074219 250.003906 61.746094 248.621094 61.96875 247.242188 C 62.191406 245.863281 62.9375 244.652344 64.066406 243.835938 " fill-opacity="1" fill-rule="nonzero"/><path fill="#2e2d2c" d="M 163.1875 299.75 C 162.785156 295.828125 162.164062 291.792969 160.152344 288.816406 C 156.765625 283.804688 138.175781 258.382812 136.066406 255.503906 L 136.0625 255.496094 C 134.484375 253.328125 131.9375 252.03125 129.246094 252.03125 C 127.46875 252.03125 125.769531 252.582031 124.328125 253.625 C 123.640625 254.121094 123.035156 254.714844 122.53125 255.390625 C 121.839844 256.308594 122.023438 257.625 122.945312 258.316406 C 123.3125 258.59375 123.746094 258.738281 124.203125 258.738281 C 124.867188 258.738281 125.476562 258.433594 125.875 257.902344 C 126.128906 257.5625 126.433594 257.265625 126.78125 257.015625 C 127.503906 256.492188 128.359375 256.214844 129.253906 256.214844 C 130.601562 256.214844 131.882812 256.863281 132.675781 257.949219 L 132.683594 257.96875 L 132.699219 257.980469 C 133.144531 258.59375 153.257812 286.085938 156.6875 291.160156 C 158.140625 293.3125 158.597656 296.855469 159.039062 300.28125 C 159.386719 302.964844 163.511719 302.894531 163.1875 299.75 " fill-opacity="1" fill-rule="nonzero"/><path fill="#2e2d2c" d="M 124.722656 326.164062 C 121.726562 325.25 118.351562 324.367188 114.765625 323.460938 L 114.753906 323.457031 C 107.195312 321.550781 98.625 319.386719 95.296875 316.472656 L 80.488281 303.445312 C 80.4375 303.378906 80.382812 303.324219 80.324219 303.269531 C 79.316406 302.304688 78.742188 301.007812 78.710938 299.609375 C 78.675781 298.214844 79.191406 296.890625 80.152344 295.878906 C 81.007812 294.984375 82.152344 294.421875 83.378906 294.292969 C 84.523438 294.167969 85.359375 293.136719 85.234375 291.988281 C 85.121094 290.921875 84.230469 290.117188 83.15625 290.117188 C 83.082031 290.117188 83.007812 290.121094 82.933594 290.128906 C 80.726562 290.367188 78.664062 291.382812 77.128906 292.992188 C 75.390625 294.808594 74.46875 297.195312 74.527344 299.707031 C 74.582031 302.082031 75.519531 304.324219 77.167969 306.027344 C 77.257812 306.152344 77.363281 306.265625 77.480469 306.367188 L 92.515625 319.597656 L 92.554688 319.636719 L 92.570312 319.648438 C 96.671875 323.210938 105.34375 325.398438 113.730469 327.515625 L 113.738281 327.515625 C 117.261719 328.40625 120.554688 329.375 123.464844 330.152344 C 126.535156 330.972656 127.691406 327.0625 124.722656 326.164062 " fill-opacity="1" fill-rule="nonzero"/><path fill="#2e2d2c" d="M 108.339844 260.9375 C 107.734375 261.917969 108.042969 263.210938 109.023438 263.816406 C 109.355469 264.019531 109.734375 264.125 110.121094 264.125 C 110.851562 264.125 111.519531 263.753906 111.902344 263.128906 C 112.261719 262.542969 112.730469 262.042969 113.292969 261.636719 C 114.191406 260.984375 115.246094 260.644531 116.34375 260.644531 C 116.621094 260.644531 116.90625 260.664062 117.183594 260.710938 C 118.5625 260.933594 119.773438 261.675781 120.589844 262.808594 L 121.96875 264.714844 C 122.363281 265.257812 122.996094 265.582031 123.664062 265.582031 C 123.910156 265.582031 124.152344 265.539062 124.382812 265.457031 C 124.5625 265.390625 124.734375 265.296875 124.890625 265.183594 C 125.824219 264.507812 126.035156 263.199219 125.359375 262.265625 L 123.980469 260.355469 C 122.507812 258.320312 120.328125 256.980469 117.847656 256.578125 C 117.347656 256.5 116.839844 256.457031 116.335938 256.457031 C 114.355469 256.457031 112.457031 257.078125 110.839844 258.246094 C 109.828125 258.976562 108.988281 259.882812 108.339844 260.9375 " fill-opacity="1" fill-rule="nonzero"/><path fill="#2e2d2c" d="M 107.402344 269.546875 L 109.273438 272.136719 C 109.664062 272.679688 110.296875 273 110.96875 273 C 111.214844 273 111.453125 272.960938 111.683594 272.875 C 111.863281 272.808594 112.035156 272.71875 112.191406 272.605469 C 112.644531 272.277344 112.945312 271.792969 113.03125 271.242188 C 113.121094 270.691406 112.988281 270.136719 112.660156 269.683594 L 110.792969 267.097656 C 109.027344 264.660156 106.171875 263.203125 103.152344 263.203125 C 101.164062 263.203125 99.261719 263.820312 97.652344 264.984375 C 97.136719 265.359375 96.65625 265.785156 96.230469 266.25 C 95.851562 266.660156 95.65625 267.195312 95.679688 267.753906 C 95.703125 268.3125 95.941406 268.828125 96.355469 269.207031 C 96.742188 269.5625 97.242188 269.757812 97.769531 269.757812 C 98.351562 269.757812 98.914062 269.511719 99.308594 269.078125 C 99.546875 268.820312 99.816406 268.582031 100.101562 268.375 C 101 267.726562 102.054688 267.386719 103.15625 267.386719 C 104.835938 267.386719 106.421875 268.195312 107.402344 269.546875 " fill-opacity="1" fill-rule="nonzero"/><g clip-path="url(#4bd4c13573)"><path fill="#2e2d2c" d="M 48.699219 204.808594 L 102.84375 204.808594 C 106.707031 204.808594 109.847656 207.949219 109.847656 211.808594 L 109.847656 221.238281 L 41.695312 221.234375 L 41.695312 211.808594 C 41.695312 207.949219 44.839844 204.808594 48.699219 204.808594 Z M 100.484375 333.574219 L 48.699219 333.574219 C 44.839844 333.574219 41.695312 330.433594 41.695312 326.574219 L 41.695312 315.957031 L 68.644531 315.960938 C 69.804688 315.960938 70.742188 315.023438 70.742188 313.863281 C 70.742188 312.707031 69.804688 311.765625 68.644531 311.765625 L 41.695312 311.757812 L 41.695312 225.429688 L 109.847656 225.4375 L 109.847656 242.671875 C 109.847656 243.832031 110.785156 244.769531 111.945312 244.769531 C 113.105469 244.769531 114.042969 243.832031 114.042969 242.671875 L 114.042969 211.808594 C 114.042969 205.632812 109.019531 200.609375 102.84375 200.609375 L 48.699219 200.609375 C 42.523438 200.609375 37.5 205.632812 37.5 211.808594 L 37.5 326.574219 C 37.5 332.75 42.523438 337.773438 48.699219 337.773438 L 100.484375 337.773438 C 101.644531 337.773438 102.582031 336.832031 102.582031 335.671875 C 102.582031 334.515625 101.644531 333.574219 100.484375 333.574219 " fill-opacity="1" fill-rule="nonzero"/></g><path fill="#2e2d2c" d="M 190.855469 280.363281 L 212.679688 263.851562 C 213.21875 263.445312 213.535156 262.804688 213.535156 262.128906 C 213.535156 261.457031 213.21875 260.8125 212.679688 260.40625 L 190.855469 243.898438 C 190.199219 243.402344 189.328125 243.320312 188.589844 243.6875 C 187.851562 244.054688 187.390625 244.796875 187.390625 245.621094 L 187.390625 259.984375 L 170.597656 259.984375 C 169.40625 259.984375 168.4375 260.953125 168.4375 262.144531 C 168.4375 263.335938 169.40625 264.304688 170.597656 264.304688 L 189.398438 264.304688 C 189.425781 264.304688 189.445312 264.300781 189.46875 264.300781 L 189.503906 264.300781 C 189.527344 264.300781 189.550781 264.304688 189.570312 264.304688 C 190.753906 264.296875 191.710938 263.332031 191.710938 262.144531 L 191.710938 249.960938 L 207.796875 262.128906 L 188.25 276.917969 C 187.789062 277.265625 187.492188 277.773438 187.414062 278.34375 C 187.335938 278.914062 187.480469 279.480469 187.832031 279.941406 C 188.242188 280.488281 188.871094 280.800781 189.554688 280.800781 C 190.027344 280.800781 190.476562 280.648438 190.855469 280.363281 " fill-opacity="1" fill-rule="nonzero"/></svg>