<svg xmlns="http://www.w3.org/2000/svg" xmlns:xlink="http://www.w3.org/1999/xlink" width="500" zoomAndPan="magnify" viewBox="0 0 375 374.999991" height="500" preserveAspectRatio="xMidYMid meet" version="1.0"><defs><clipPath id="cac6a6acfb"><path d="M 38 133 L 337 133 L 337 243.9375 L 38 243.9375 Z M 38 133 " clip-rule="nonzero"/></clipPath></defs><rect x="-37.5" width="450" fill="#ffffff" y="-37.499999" height="449.999989" fill-opacity="1"/><rect x="-37.5" width="450" fill="#ffffff" y="-37.499999" height="449.999989" fill-opacity="1"/><rect x="-37.5" width="450" fill="#ffffff" y="-37.499999" height="449.999989" fill-opacity="1"/><path fill="#0ed3e8" d="M 0 103.660156 L 0 20.152344 L 118.136719 20.152344 L 118.136719 23.085938 L 2.902344 23.085938 L 2.902344 103.660156 Z M 256.894531 20.152344 L 375 20.152344 L 375 103.660156 L 372.097656 103.660156 L 372.097656 23.085938 L 256.894531 23.085938 Z M 375 271.371094 L 375 354.847656 L 256.894531 354.847656 L 256.894531 351.914062 L 372.097656 351.914062 L 372.097656 271.371094 Z M 118.136719 354.847656 L 0 354.847656 L 0 271.371094 L 2.902344 271.371094 L 2.902344 351.914062 L 118.136719 351.914062 Z M 118.136719 354.847656 " fill-opacity="1" fill-rule="nonzero"/><path fill="#0ed3e8" d="M 20.152344 103.660156 L 20.152344 0 L 116.179688 0 L 116.179688 2.902344 L 23.085938 2.902344 L 23.085938 103.660156 Z M 258.820312 0 L 354.847656 0 L 354.847656 103.660156 L 351.914062 103.660156 L 351.914062 2.902344 L 258.820312 2.902344 Z M 354.847656 271.371094 L 354.847656 375 L 258.820312 375 L 258.820312 372.097656 L 351.914062 372.097656 L 351.914062 271.371094 Z M 116.179688 375 L 20.152344 375 L 20.152344 271.371094 L 23.085938 271.371094 L 23.085938 372.097656 L 116.179688 372.097656 Z M 116.179688 375 " fill-opacity="1" fill-rule="nonzero"/><path fill="#040606" d="M 113.785156 215.074219 C 113.421875 217.019531 112.476562 219.859375 111.484375 221.542969 C 110.5 223.222656 110.371094 223.222656 108.707031 222.574219 C 107.921875 222.265625 107.167969 221.617188 106.410156 221.21875 C 105.011719 220.480469 97.972656 218.722656 96.199219 217.6875 C 96.230469 217.648438 96.25 217.609375 96.269531 217.558594 C 98.019531 213.394531 99.09375 207.011719 104.039062 206.003906 C 106.371094 205.53125 109.074219 204.347656 111.019531 206.339844 C 112.722656 208.097656 114.179688 212.882812 113.785156 215.074219 Z M 113.230469 205.898438 C 111.972656 203.371094 111.632812 202.472656 108.847656 202.835938 C 106.230469 203.183594 101.699219 203.488281 99.605469 205.3125 C 96.976562 207.613281 95.75 213.101562 94.441406 216.296875 C 94.027344 216.414062 93.664062 216.738281 93.605469 217.28125 C 93.378906 219.484375 94.804688 220.054688 96.691406 220.46875 C 101.304688 221.476562 104.597656 223.015625 108.699219 225.226562 C 110.359375 226.125 111.671875 226.308594 112.710938 224.546875 C 114.238281 221.980469 115.878906 217.28125 116.261719 214.285156 C 116.65625 211.285156 114.511719 208.472656 113.230469 205.898438 " fill-opacity="1" fill-rule="nonzero"/><path fill="#040606" d="M 70.894531 213.632812 C 68.976562 213.917969 66.550781 215.515625 65.773438 213.0625 C 65.261719 211.421875 65.457031 207.839844 65.636719 206.191406 C 65.972656 203.25 67.71875 200.894531 70.023438 199.070312 C 72.558594 197.054688 73.972656 197.847656 76.59375 199.335938 C 79.226562 200.835938 80.339844 202.027344 80.820312 205.324219 C 81.203125 207.898438 81.230469 210.582031 81.429688 213.179688 C 81.4375 213.316406 81.46875 213.433594 81.515625 213.542969 C 79.542969 213.886719 71.871094 213.484375 70.894531 213.632812 Z M 83.59375 212.753906 C 83.375 209.210938 83.867188 204.160156 82.296875 201.050781 C 81.066406 198.585938 77.542969 197.359375 75.300781 196.089844 C 72.941406 194.746094 72.078125 194.15625 70.023438 195.96875 C 67.710938 198.003906 64.09375 200.804688 63.492188 204 C 63.1875 205.648438 63.480469 207.585938 63.511719 209.238281 C 63.550781 210.988281 63.253906 213.1875 63.660156 214.875 C 64.042969 216.464844 64.820312 217.039062 66.511719 216.917969 C 68.851562 216.738281 71.132812 215.683594 73.554688 215.535156 C 75.914062 215.398438 78.027344 215.894531 80.367188 216.070312 C 82.265625 216.21875 83.621094 215.980469 84.085938 213.925781 C 84.203125 213.394531 83.957031 212.980469 83.59375 212.753906 " fill-opacity="1" fill-rule="nonzero"/><path fill="#040606" d="M 215.167969 174.882812 C 215.046875 175.070312 214.871094 175.230469 214.613281 175.328125 C 214.554688 175.347656 214.507812 175.367188 214.449219 175.398438 C 214.417969 175.367188 214.398438 175.347656 214.390625 175.320312 C 214.597656 175.199219 214.792969 175.078125 215 174.960938 C 215.058594 174.933594 215.117188 174.902344 215.167969 174.882812 " fill-opacity="1" fill-rule="nonzero"/><path fill="#040606" d="M 215.167969 174.882812 C 215.046875 175.070312 214.871094 175.230469 214.613281 175.328125 C 214.554688 175.347656 214.507812 175.367188 214.449219 175.398438 C 214.261719 175.464844 214.082031 175.535156 213.898438 175.605469 C 214.066406 175.515625 214.230469 175.417969 214.390625 175.320312 C 214.597656 175.199219 214.792969 175.078125 215 174.960938 C 215.058594 174.933594 215.117188 174.902344 215.167969 174.882812 " fill-opacity="1" fill-rule="nonzero"/><path fill="#040606" d="M 215.167969 174.882812 C 215.046875 175.070312 214.871094 175.230469 214.613281 175.328125 C 214.554688 175.347656 214.507812 175.367188 214.449219 175.398438 C 214.261719 175.464844 214.082031 175.535156 213.898438 175.605469 C 214.066406 175.515625 214.230469 175.417969 214.390625 175.320312 C 214.597656 175.199219 214.792969 175.078125 215 174.960938 C 215.058594 174.933594 215.117188 174.902344 215.167969 174.882812 " fill-opacity="1" fill-rule="nonzero"/><g clip-path="url(#cac6a6acfb)"><path fill="#040606" d="M 308.535156 154.171875 C 312.40625 154.578125 313 156.234375 313.734375 159.648438 C 314.808594 164.5625 316.566406 169.753906 317.019531 174.765625 C 317.15625 176.226562 318.003906 176.796875 316.511719 178.238281 C 315.652344 179.066406 312.703125 179.402344 311.828125 179.433594 C 311.257812 179.441406 310.5 179.273438 309.8125 179.3125 C 309.800781 179.3125 309.800781 179.3125 309.800781 179.3125 C 299.828125 175.160156 297.882812 163.121094 299.339844 153.433594 C 299.347656 153.382812 299.347656 153.34375 299.359375 153.296875 L 299.886719 153.324219 L 299.917969 153.324219 C 300.488281 153.355469 301.078125 153.402344 301.667969 153.460938 C 303.960938 153.699219 306.25 153.933594 308.535156 154.171875 Z M 313.480469 213.328125 C 313.953125 215.476562 314.40625 217.636719 314.816406 219.808594 C 315.445312 223.105469 315.269531 224.742188 311.820312 225.632812 C 306.941406 226.875 301.226562 226.757812 296.230469 227.289062 C 291.324219 227.8125 286.425781 228.34375 281.515625 228.867188 C 279.207031 229.113281 276.894531 229.363281 274.59375 229.605469 C 272.441406 229.832031 268.066406 231.117188 265.933594 230.523438 C 264.417969 230.113281 264.378906 229.222656 264.023438 227.546875 C 263.679688 225.917969 263.628906 224.179688 263.441406 222.519531 C 263.15625 220.015625 262.863281 217.5 262.578125 214.996094 C 261.929688 209.410156 261.289062 203.835938 260.640625 198.25 C 260.472656 196.789062 260.589844 194.53125 260.089844 192.703125 C 261.929688 188.144531 261.730469 183.488281 261.242188 178.652344 C 260.75 173.847656 260.167969 169.0625 259.292969 164.316406 C 259.507812 164.34375 259.746094 164.304688 259.980469 164.195312 C 261.023438 163.746094 262.066406 163.289062 263.101562 162.835938 C 263.628906 162.597656 263.757812 162.144531 263.609375 161.71875 C 263.621094 161.679688 263.609375 161.632812 263.601562 161.589844 C 263.589844 161.5625 263.589844 161.53125 263.582031 161.503906 C 264.140625 161.347656 264.699219 161.207031 265.261719 161.078125 C 268.457031 166.761719 274.527344 170.917969 281.261719 169.742188 C 287.664062 168.628906 291.628906 161.957031 293.292969 155.847656 C 293.300781 155.859375 293.320312 155.859375 293.339844 155.859375 C 294.480469 155.867188 295.609375 155.878906 296.742188 155.886719 C 296.789062 155.886719 296.839844 155.886719 296.886719 155.878906 C 296.132812 165.601562 298.71875 176.097656 307.6875 180.714844 C 307.070312 182.019531 307.609375 183.824219 307.824219 185.460938 C 309.0625 194.875 311.464844 204.0625 313.480469 213.328125 Z M 258.597656 190.316406 C 258.476562 190.226562 258.335938 190.148438 258.203125 190.078125 C 256.164062 189.09375 248.917969 192.800781 248.191406 190.355469 C 247.175781 185.953125 245.851562 181.652344 244.117188 177.476562 C 243.046875 174.902344 241.019531 172.03125 243.398438 169.238281 C 244.796875 167.601562 247.863281 166.5625 249.753906 165.847656 C 252.113281 164.949219 254.492188 164.128906 256.890625 163.386719 C 257.90625 168.429688 258.523438 173.542969 259.058594 178.652344 C 259.46875 182.648438 259.6875 186.507812 258.597656 190.316406 Z M 275.039062 159.046875 C 277.75 158.574219 280.347656 157.960938 282.90625 157.164062 C 282.921875 157.164062 282.953125 157.152344 282.984375 157.144531 C 285.71875 156.550781 288.453125 155.929688 291.175781 155.289062 C 289.828125 160.101562 286.925781 165.601562 282.402344 167.15625 C 276.335938 169.238281 270.613281 165.589844 267.484375 160.554688 C 269.984375 159.996094 272.5 159.492188 275.039062 159.046875 Z M 234.097656 174.84375 C 234.078125 178.960938 230.871094 182.472656 231.601562 186.6875 C 232.210938 190.214844 234.71875 190.582031 237.3125 192.339844 C 242.457031 195.832031 241.484375 205.175781 238.6875 209.785156 C 235.589844 213.089844 231.1875 211.964844 229.011719 208.222656 C 228.707031 207.710938 228.460938 207.1875 228.265625 206.65625 C 228.167969 206.429688 228.089844 206.203125 228.027344 205.976562 C 227.164062 203.210938 227.488281 200.292969 228.3125 197.421875 C 229.328125 193.878906 232.269531 189.703125 230.84375 185.925781 C 229.535156 182.429688 225.375 181.78125 222.570312 179.917969 C 220.632812 178.621094 217.960938 176.601562 216.660156 174.609375 C 215.402344 172.691406 214.949219 169.617188 216.621094 167.71875 C 217.625 166.585938 219.484375 165.804688 220.871094 165.390625 C 220.898438 165.382812 220.929688 165.371094 220.957031 165.363281 C 221.046875 165.339844 221.125 165.3125 221.214844 165.300781 L 221.214844 165.382812 C 221.265625 165.984375 221.304688 166.597656 221.351562 167.195312 C 221.390625 167.621094 221.617188 167.917969 221.914062 168.085938 C 221.914062 168.09375 221.921875 168.09375 221.929688 168.09375 C 222.070312 168.191406 222.246094 168.261719 222.445312 168.292969 C 223.574219 168.429688 224.695312 168.570312 225.828125 168.707031 C 226.4375 168.785156 226.878906 168.144531 226.917969 167.613281 C 226.976562 166.890625 227.027344 166.179688 227.085938 165.460938 C 231.027344 166.722656 234.117188 170.246094 234.097656 174.84375 Z M 220.59375 212.675781 C 218.382812 213.1875 216.316406 214.183594 214.136719 214.726562 C 214.171875 214.6875 214.222656 214.65625 214.269531 214.617188 C 214.910156 214.085938 215.628906 213.691406 216.433594 213.445312 C 217.457031 213.027344 218.519531 212.722656 219.570312 212.390625 C 221.929688 211.648438 224.320312 211.015625 226.730469 210.476562 C 224.929688 211.796875 222.808594 212.171875 220.59375 212.675781 Z M 212.707031 213.007812 C 213.140625 210.019531 222.648438 208.355469 226.355469 207.773438 C 226.425781 207.9375 226.496094 208.105469 226.574219 208.261719 C 224.527344 208.707031 216.355469 210.5625 212.707031 213.007812 Z M 214.613281 175.328125 C 214.554688 175.347656 214.507812 175.367188 214.449219 175.398438 C 214.261719 175.464844 214.082031 175.535156 213.898438 175.605469 C 212.335938 176.523438 210.75 177.398438 209.089844 178.109375 C 208.132812 178.523438 207.171875 178.890625 206.167969 179.167969 C 208.675781 177.824219 211.242188 176.640625 213.898438 175.605469 C 214.066406 175.515625 214.230469 175.417969 214.390625 175.320312 C 214.597656 175.199219 214.792969 175.078125 215 174.960938 C 215.058594 174.933594 215.117188 174.902344 215.167969 174.882812 C 215.046875 175.070312 214.871094 175.230469 214.613281 175.328125 Z M 203.316406 178.128906 C 202.785156 178.398438 202.222656 178.632812 201.714844 178.921875 C 202.183594 176.925781 210.230469 173.699219 212.863281 172.722656 C 212.964844 172.988281 213.070312 173.265625 213.207031 173.53125 C 209.925781 174.804688 206.746094 176.304688 203.679688 178.023438 C 203.5625 178.03125 203.441406 178.070312 203.316406 178.128906 Z M 193.148438 176.136719 C 190.570312 178.121094 187.445312 179.453125 184.816406 181.425781 C 182.507812 183.164062 180.414062 185.078125 178.640625 187.363281 C 176.132812 190.613281 172.386719 196.238281 168.207031 191.191406 L 168.199219 191.183594 C 168.070312 191.046875 167.960938 190.90625 167.84375 190.742188 C 167.832031 190.742188 167.832031 190.742188 167.832031 190.730469 C 167.8125 190.703125 167.792969 190.671875 167.765625 190.640625 C 166.121094 188.394531 165.355469 185.5625 163.722656 183.261719 C 162.117188 181.011719 160.230469 178.96875 158.117188 177.203125 C 155.964844 175.40625 153.445312 174.332031 151.164062 172.78125 C 149.445312 171.617188 149.207031 171.351562 149.109375 169.121094 C 149.039062 167.632812 149.394531 165.964844 149.671875 164.402344 C 152.089844 164.53125 154.5 164.652344 156.917969 164.761719 C 156.96875 165.441406 157.027344 166.121094 157.074219 166.804688 C 157.113281 167.335938 157.546875 167.976562 158.167969 167.898438 C 159.285156 167.761719 160.417969 167.613281 161.539062 167.472656 C 161.738281 167.441406 161.914062 167.382812 162.050781 167.285156 C 162.0625 167.285156 162.0625 167.277344 162.0625 167.277344 C 162.363281 167.117188 162.601562 166.8125 162.632812 166.378906 C 162.671875 165.90625 162.699219 165.429688 162.738281 164.96875 C 169.160156 165.183594 175.574219 165.292969 181.992188 165.300781 C 182.035156 165.796875 182.066406 166.296875 182.101562 166.792969 C 182.140625 167.226562 182.378906 167.535156 182.683594 167.699219 C 182.695312 167.699219 182.695312 167.710938 182.703125 167.710938 C 182.792969 167.75 182.878906 167.789062 182.976562 167.808594 C 183.046875 167.828125 183.105469 167.878906 183.195312 167.886719 C 184.324219 168.027344 185.445312 168.164062 186.578125 168.3125 C 187.1875 168.390625 187.628906 167.742188 187.671875 167.214844 C 187.71875 166.578125 187.769531 165.925781 187.816406 165.28125 C 187.816406 165.253906 187.816406 165.222656 187.828125 165.195312 C 188.652344 165.222656 189.480469 165.242188 190.304688 165.273438 L 190.335938 165.273438 C 192.242188 165.253906 194.152344 165.222656 196.058594 165.183594 C 196.058594 165.273438 196.058594 165.351562 196.066406 165.429688 C 196.195312 169.507812 196.667969 173.445312 193.148438 176.136719 Z M 187.078125 184.8125 C 184.9375 186.804688 181.601562 190.277344 178.347656 191.578125 C 181.089844 188.203125 183.390625 185.078125 187.058594 182.480469 C 188.464844 181.496094 190.441406 180.585938 192.339844 179.578125 C 190.699219 181.574219 188.652344 183.347656 187.078125 184.8125 Z M 157.839844 183.714844 C 155.285156 181.394531 151.390625 178.238281 150.105469 174.726562 C 150.296875 174.804688 150.476562 174.882812 150.652344 174.972656 C 152.976562 176.097656 155.128906 177.507812 157.074219 179.1875 C 160.429688 182.078125 162.699219 185.5 164.628906 189.398438 C 162.097656 187.878906 159.699219 185.390625 157.839844 183.714844 Z M 135.183594 179.234375 C 135.09375 179.335938 135.015625 179.421875 134.925781 179.511719 C 128.996094 176.480469 122.851562 174.015625 116.449219 172.167969 C 115.269531 171.824219 112.976562 170.957031 110.84375 170.660156 C 112.042969 168.738281 112.976562 166.578125 113.953125 164.621094 C 115.425781 161.640625 116.585938 158.820312 114.84375 155.671875 C 114.167969 154.4375 112.28125 155.542969 112.957031 156.777344 C 113.085938 157.011719 113.191406 157.242188 113.273438 157.476562 C 111.386719 157.320312 109.507812 157.113281 107.636719 156.835938 C 107.695312 156.667969 107.753906 156.511719 107.835938 156.363281 C 108.945312 154.160156 111.933594 154.0625 114.128906 153.816406 C 117.097656 153.492188 120.085938 153.246094 123.078125 153.085938 C 126.3125 152.910156 129.617188 152.710938 132.863281 152.851562 C 137.316406 153.046875 139.617188 155.515625 139.667969 159.964844 C 139.726562 165.707031 139.117188 174.773438 135.183594 179.234375 Z M 129.933594 180.78125 C 128.183594 180.617188 126.429688 180.339844 124.699219 180.003906 C 121.542969 179.375 118.4375 178.484375 115.425781 177.359375 C 114.296875 176.945312 106.429688 173.738281 110.027344 172.949219 C 111.796875 172.566406 114.816406 173.957031 116.558594 174.46875 C 122.144531 176.117188 127.53125 178.269531 132.746094 180.855469 C 131.96875 181 131.101562 180.902344 129.933594 180.78125 Z M 116.292969 231.835938 C 101.019531 227.101562 85.492188 223.300781 69.777344 220.449219 C 69.050781 220.320312 68.332031 220.195312 67.605469 220.066406 C 64.152344 219.464844 60.6875 218.902344 57.226562 218.398438 C 58.839844 201.960938 60.539062 185.53125 62.339844 169.109375 C 69.429688 171.421875 77.011719 172.160156 84.4375 171.242188 C 87.507812 170.859375 88.078125 170.246094 88.246094 167.109375 C 88.363281 164.988281 88.265625 162.855469 88 160.753906 C 87.722656 158.632812 86.847656 156.175781 86.964844 153.914062 C 88.136719 154.339844 89.304688 154.746094 90.484375 155.117188 C 90.476562 155.9375 90.445312 156.738281 90.425781 157.476562 C 90.339844 162.183594 89.621094 166.851562 88.8125 171.488281 C 87.40625 179.550781 85.796875 189.332031 85.71875 197.546875 L 85.71875 197.625 C 85.292969 197.675781 84.878906 197.746094 84.457031 197.824219 C 83.070312 198.089844 83.660156 200.203125 85.039062 199.9375 C 89.640625 199.078125 94.15625 199.847656 98.246094 202.15625 C 99.464844 202.847656 100.566406 200.953125 99.347656 200.261719 C 98.90625 200.015625 98.460938 199.78125 98.019531 199.5625 C 98.15625 199.441406 98.253906 199.265625 98.304688 199.039062 C 101.183594 186.101562 104.078125 173.160156 106.960938 160.222656 C 107.046875 159.835938 107.109375 159.402344 107.1875 158.96875 C 109.269531 159.273438 111.375 159.511719 113.488281 159.6875 C 113.5 159.6875 113.5 159.6875 113.507812 159.6875 C 113.273438 161.679688 112.011719 163.664062 111.121094 165.410156 C 110.226562 167.148438 109.359375 169.128906 108.148438 170.730469 L 108.140625 170.730469 C 107.351562 170.925781 106.734375 171.351562 106.371094 172.101562 C 104.636719 175.605469 109.554688 177.339844 111.808594 178.25 C 117.226562 180.417969 123.34375 182.617188 129.351562 183.054688 C 125.976562 199.570312 121.632812 215.851562 116.292969 231.835938 Z M 112.4375 241.507812 C 108.90625 240.488281 105.386719 239.464844 101.855469 238.4375 C 102.550781 235.792969 103.183594 233.128906 103.722656 230.4375 C 107.628906 231.523438 111.523438 232.65625 115.398438 233.863281 C 114.671875 236.511719 113.707031 239.019531 112.4375 241.507812 Z M 99.761719 237.828125 C 93.730469 236.089844 87.703125 234.351562 81.65625 232.722656 C 77.789062 231.6875 73.808594 230.554688 69.777344 229.597656 L 69.777344 222.671875 C 80.484375 224.625 91.105469 227.019531 101.621094 229.863281 C 101.078125 232.539062 100.449219 235.191406 99.761719 237.828125 Z M 67.589844 229.101562 C 63.1875 228.144531 58.722656 227.457031 54.316406 227.417969 C 54.335938 225.125 54.117188 222.9375 53.667969 220.660156 C 53.609375 220.351562 53.449219 220.132812 53.253906 220.015625 C 58.054688 220.6875 62.832031 221.4375 67.589844 222.277344 Z M 56.992188 164.628906 C 57.148438 163.042969 58.582031 163.652344 60.011719 163.613281 C 61.496094 163.566406 62.980469 163.535156 64.472656 163.535156 C 71.683594 163.546875 78.753906 164.324219 85.234375 167.710938 C 85.480469 167.839844 85.726562 167.867188 85.953125 167.820312 C 85.746094 168.765625 85.109375 169.011719 82.933594 169.21875 C 81.429688 169.355469 79.914062 169.4375 78.398438 169.449219 C 74.714844 169.46875 71.035156 169.050781 67.4375 168.242188 C 66.875 168.113281 64.710938 167.582031 62.507812 166.941406 C 62.339844 166.296875 61.523438 166.140625 60.945312 166.457031 C 58.78125 165.785156 56.949219 165.074219 56.992188 164.628906 Z M 62.027344 145.605469 C 62.449219 144.316406 62.714844 142.875 63.234375 141.609375 C 65.125 137.0625 68.65625 138.140625 71.949219 139.558594 C 75.871094 141.257812 79.75 143.082031 83.652344 144.847656 C 86.976562 146.335938 89.019531 146.636719 90.171875 151.121094 C 90.300781 151.648438 90.390625 152.21875 90.425781 152.800781 C 89.433594 152.476562 88.453125 152.140625 87.46875 151.773438 C 87.554688 151.585938 87.644531 151.421875 87.753906 151.242188 C 88.492188 150.046875 86.601562 148.941406 85.867188 150.136719 C 83.0625 154.675781 86.316406 160.605469 86.109375 165.546875 C 86.109375 165.601562 86.109375 165.660156 86.101562 165.707031 C 77.96875 161.53125 68.976562 161.160156 60.011719 161.425781 C 59.15625 161.445312 57.875 161.347656 56.695312 161.503906 C 58.296875 156.148438 60.316406 150.925781 62.027344 145.605469 Z M 92.324219 162.242188 C 92.511719 160.339844 92.75 158.101562 92.816406 155.839844 C 96.847656 157.03125 100.929688 157.960938 105.070312 158.652344 C 104.15625 162.628906 103.289062 166.617188 102.40625 170.613281 C 100.339844 179.886719 98.265625 189.171875 96.199219 198.457031 C 96.171875 198.574219 96.171875 198.683594 96.179688 198.785156 C 93.523438 197.785156 90.742188 197.332031 87.898438 197.441406 C 88.027344 186.113281 91.285156 173.453125 92.324219 162.242188 Z M 335.125 140.953125 C 324.730469 147.097656 312.007812 148.746094 300.09375 151.074219 L 300.066406 151.074219 C 299.269531 151.003906 298.480469 150.964844 297.695312 150.964844 C 297.617188 149.023438 297.546875 147.078125 297.480469 145.132812 C 297.460938 144.589844 296.996094 143.96875 296.386719 144.039062 C 294.796875 144.214844 293.203125 144.402344 291.617188 144.582031 C 290.871094 144.667969 290.417969 145.210938 290.566406 145.972656 C 290.917969 147.878906 291.285156 149.773438 291.648438 151.667969 C 287.949219 152.664062 284.515625 154.179688 280.917969 155.367188 C 280.917969 155.367188 280.917969 155.367188 280.910156 155.367188 C 274.96875 156.667969 269.019531 157.890625 263.03125 158.949219 C 262.566406 156.816406 262.117188 154.695312 261.65625 152.566406 C 261.535156 151.992188 260.855469 151.636719 260.316406 151.792969 C 258.78125 152.246094 257.238281 152.710938 255.703125 153.164062 C 255.183594 153.324219 254.730469 153.945312 254.945312 154.507812 C 255.632812 156.324219 256.324219 158.140625 257.011719 159.957031 C 252.21875 160.714844 247.421875 161.355469 242.605469 161.832031 C 237.507812 162.332031 232.398438 162.695312 227.273438 162.933594 C 227.402344 161.285156 227.527344 159.628906 227.65625 157.96875 C 227.695312 157.378906 227.113281 156.875 226.5625 156.875 L 221.757812 156.875 C 221.195312 156.875 220.625 157.378906 220.664062 157.96875 C 220.789062 159.6875 220.917969 161.394531 221.046875 163.101562 C 220.910156 163.121094 220.761719 163.152344 220.625 163.199219 C 213.042969 163.417969 205.449219 163.40625 197.847656 163.261719 C 197.652344 163.082031 197.40625 162.976562 197.132812 162.976562 C 194.925781 163.023438 192.726562 163.0625 190.523438 163.082031 L 190.304688 163.082031 C 189.527344 163.054688 188.769531 163.023438 187.996094 162.996094 C 188.128906 161.1875 188.269531 159.371094 188.40625 157.566406 C 188.445312 156.984375 187.867188 156.472656 187.316406 156.472656 L 182.507812 156.472656 C 181.945312 156.472656 181.375 156.972656 181.414062 157.566406 C 181.554688 159.304688 181.679688 161.039062 181.808594 162.777344 C 175.523438 162.527344 169.238281 162.234375 162.964844 161.9375 C 163.085938 160.339844 163.203125 158.75 163.320312 157.164062 C 163.371094 156.570312 162.789062 156.066406 162.230469 156.066406 L 157.429688 156.066406 C 156.867188 156.066406 156.289062 156.558594 156.335938 157.164062 C 156.457031 158.652344 156.5625 160.140625 156.679688 161.640625 C 151.8125 161.414062 146.945312 161.207031 142.097656 161.03125 C 142.109375 158.859375 141.824219 156.785156 141.074219 155 C 139.097656 150.246094 133.972656 150.621094 129.597656 150.671875 C 125.792969 150.71875 121.988281 150.90625 118.1875 151.230469 C 115.199219 151.488281 111.464844 151.300781 108.640625 152.378906 C 106.585938 153.164062 106.035156 154.585938 105.5625 156.519531 C 101.253906 155.820312 97.007812 154.824219 92.816406 153.550781 C 92.75 151.421875 92.445312 149.367188 91.707031 147.632812 C 90.066406 143.761719 83.542969 142.410156 80.070312 140.839844 C 75.175781 138.632812 64.90625 131.441406 61.660156 139.390625 C 60.984375 141.050781 60.421875 142.773438 59.902344 144.523438 C 52.898438 141.691406 46.242188 138.21875 39.890625 134.113281 C 38.699219 133.355469 37.609375 135.25 38.789062 136.007812 C 45.289062 140.191406 52.113281 143.722656 59.28125 146.625 C 58.839844 148.085938 58.40625 149.546875 57.925781 150.964844 C 56.511719 155.070312 55.035156 159.175781 53.894531 163.378906 C 53.886719 163.4375 53.871094 163.488281 53.871094 163.535156 C 53.867188 163.546875 53.867188 163.554688 53.867188 163.566406 L 53.867188 163.605469 C 53.851562 163.625 53.851562 163.652344 53.851562 163.683594 C 53.550781 165.765625 56.539062 166.851562 57.964844 167.460938 C 58.722656 167.789062 59.480469 168.09375 60.246094 168.378906 C 58.417969 184.9375 56.695312 201.503906 55.074219 218.082031 C 54.257812 217.964844 53.449219 217.847656 52.632812 217.738281 C 52.105469 217.667969 51.394531 217.867188 51.289062 218.507812 C 51.1875 219.117188 51.089844 219.730469 50.992188 220.339844 C 50.894531 220.914062 51.207031 221.359375 51.621094 221.566406 C 52.054688 223.882812 52.210938 226.144531 52.113281 228.503906 C 52.09375 229.09375 52.632812 229.605469 53.207031 229.597656 C 57.957031 229.539062 62.804688 230.257812 67.589844 231.316406 C 68.320312 231.472656 69.039062 231.640625 69.757812 231.808594 C 74.152344 232.851562 78.5 234.136719 82.6875 235.28125 C 88.1875 236.792969 93.683594 238.359375 99.171875 239.949219 C 99.867188 240.144531 100.566406 240.351562 101.265625 240.5625 C 104.964844 241.625 108.660156 242.703125 112.359375 243.765625 C 112.890625 243.914062 113.304688 243.6875 113.519531 243.320312 C 113.804688 243.28125 114.070312 243.113281 114.238281 242.78125 C 115.613281 240.105469 116.695312 237.371094 117.492188 234.492188 C 117.660156 234.363281 117.808594 234.175781 117.882812 233.929688 C 123.511719 217.304688 128.074219 200.351562 131.554688 183.132812 C 131.847656 183.132812 132.136719 183.125 132.429688 183.113281 C 137.898438 182.90625 138.871094 178.179688 140.023438 173.621094 C 140.769531 170.632812 141.703125 166.882812 142 163.210938 C 143.875 163.28125 145.746094 163.359375 147.632812 163.4375 C 147.21875 166.101562 145.636719 170.789062 147.199219 173.007812 C 147.347656 173.21875 147.527344 173.402344 147.722656 173.550781 C 147.652344 173.71875 147.632812 173.917969 147.671875 174.132812 C 148.5 178.535156 153.191406 182.441406 156.296875 185.261719 C 159.054688 187.75 162.839844 191.6875 166.625 192.632812 L 166.636719 192.644531 C 167.804688 194.097656 169.300781 195.191406 171.277344 195.496094 C 173.003906 195.753906 174.492188 195.203125 175.769531 194.242188 C 175.78125 194.242188 175.78125 194.242188 175.78125 194.242188 C 175.898438 194.28125 176.015625 194.304688 176.152344 194.292969 C 180.519531 194.097656 184.898438 189.722656 187.945312 186.980469 C 190.914062 184.296875 195.234375 180.625 196.765625 176.53125 C 197.070312 176.214844 197.335938 175.878906 197.550781 175.523438 C 199.085938 173.066406 198.46875 168.65625 198.269531 165.46875 C 204.152344 165.589844 210.023438 165.609375 215.882812 165.5 C 213.789062 167.089844 212.699219 168.765625 212.550781 170.503906 C 208.902344 171.667969 205.390625 173.226562 202.136719 175.269531 C 199.667969 176.808594 197.835938 178.542969 200.363281 181.140625 C 200.5625 181.335938 200.777344 181.433594 200.984375 181.453125 C 202.34375 182.558594 205.214844 181.679688 206.628906 181.308594 C 209.617188 180.515625 212.363281 179.039062 215.019531 177.488281 C 215.128906 179.460938 216.789062 181.78125 218.480469 181.050781 C 218.480469 181.101562 218.492188 181.140625 218.492188 181.167969 C 218.539062 181.832031 218.726562 182.402344 219.179688 182.886719 C 219.867188 183.636719 220.730469 183.734375 221.589844 183.554688 C 221.6875 184.128906 221.945312 184.664062 222.492188 185.046875 C 223.230469 185.570312 224.164062 185.449219 225.050781 185.242188 C 225.214844 185.699219 225.511719 186.113281 225.835938 186.480469 C 225.867188 186.507812 225.894531 186.546875 225.9375 186.558594 C 225.953125 186.585938 225.984375 186.605469 226.003906 186.625 C 226.042969 186.65625 226.09375 186.6875 226.132812 186.707031 C 226.210938 186.765625 226.300781 186.8125 226.40625 186.84375 C 227.125 187.058594 227.902344 187.070312 228.609375 186.832031 C 228.847656 187.464844 228.914062 188.113281 228.867188 188.765625 C 228.699219 188.796875 228.519531 188.875 228.363281 189.011719 C 227.054688 190.109375 225.886719 191.617188 226.4375 193.117188 C 225.796875 193.671875 225.246094 194.332031 225.109375 195.210938 C 224.890625 196.542969 225.441406 196.808594 224.648438 198.003906 C 223.605469 199.589844 223.457031 200.894531 224.578125 202 C 223.683594 203.261719 223.59375 204.753906 224.6875 205.808594 C 218.980469 206.648438 207.957031 208.621094 210.957031 215.035156 C 210.871094 215.507812 210.996094 215.980469 211.398438 216.464844 C 213.042969 218.425781 217.308594 215.820312 219.039062 215.328125 C 222.492188 214.351562 226.035156 214.078125 228.785156 211.621094 C 228.804688 211.640625 228.824219 211.667969 228.847656 211.6875 C 232.230469 215.359375 237.078125 214.863281 240.359375 211.207031 C 240.410156 211.15625 240.449219 211.097656 240.488281 211.035156 C 240.488281 211.035156 240.488281 211.035156 240.488281 211.027344 C 240.507812 211.007812 240.519531 210.996094 240.527344 210.976562 C 243.339844 206.429688 244.140625 199.246094 241.769531 194.304688 C 240.785156 192.242188 239.417969 191.027344 237.441406 189.949219 C 231.816406 186.882812 234.46875 182.90625 235.757812 178.269531 C 237.34375 172.535156 234.84375 167.621094 230.785156 164.957031 C 235.835938 164.664062 240.871094 164.238281 245.898438 163.671875 C 247.511719 163.488281 249.136719 163.289062 250.746094 163.074219 C 248.335938 163.902344 245.976562 164.867188 243.882812 166.191406 C 241.148438 167.917969 239.449219 170.097656 240.195312 173.402344 C 240.785156 176.050781 242.242188 178.496094 243.175781 181.023438 C 244.355469 184.21875 245.289062 187.464844 246.042969 190.769531 C 246.058594 190.828125 246.078125 190.878906 246.085938 190.9375 C 246.105469 190.996094 246.125 191.066406 246.144531 191.125 C 246.980469 193.789062 248.210938 194.648438 250.921875 193.691406 C 251.988281 193.316406 253.550781 192.261719 254.710938 192.328125 C 258.566406 192.566406 258.191406 195.871094 258.457031 198.25 C 258.851562 201.601562 259.234375 204.949219 259.617188 208.292969 C 260.265625 213.878906 260.90625 219.453125 261.554688 225.039062 C 261.820312 227.359375 261.371094 231.589844 263.90625 232.683594 C 265.734375 233.476562 270.101562 232.273438 272 232.074219 C 274.878906 231.757812 277.761719 231.453125 280.652344 231.148438 C 286.996094 230.464844 293.351562 229.792969 299.691406 229.113281 C 302.585938 228.808594 305.464844 228.503906 308.355469 228.183594 C 310.667969 227.9375 313.726562 228.144531 315.917969 227.347656 C 318.601562 226.363281 317.796875 224.109375 317.375 221.675781 C 315.328125 209.980469 311.914062 198.5625 310.207031 186.8125 C 309.488281 181.9375 308.96875 182.046875 313.183594 181.523438 C 314.601562 181.347656 316.371094 180.921875 317.609375 180.132812 C 320.609375 178.210938 319.429688 175.542969 318.761719 172.496094 C 317.550781 166.902344 316.410156 161.285156 315.113281 155.710938 C 314.117188 151.441406 311.523438 152.167969 307.5 151.863281 C 317.472656 149.980469 327.570312 147.976562 336.238281 142.847656 C 337.445312 142.136719 336.34375 140.242188 335.125 140.953125 " fill-opacity="1" fill-rule="nonzero"/></g><path fill="#040606" d="M 228.265625 206.65625 C 228.167969 206.429688 228.089844 206.203125 228.027344 205.976562 C 228.167969 206.171875 228.253906 206.421875 228.265625 206.65625 " fill-opacity="1" fill-rule="nonzero"/><path fill="#040606" d="M 176.894531 170.292969 C 176.5 171.050781 175.667969 171.394531 174.988281 171.832031 C 174.488281 172.160156 174.011719 172.519531 173.5625 172.917969 C 173.382812 173.082031 173.144531 173.429688 172.871094 173.453125 C 172.609375 173.472656 172.554688 173.257812 172.449219 173.0625 C 172.171875 172.585938 171.871094 172.148438 171.480469 171.753906 C 170.765625 171.015625 168.777344 169.234375 170.222656 168.183594 C 170.777344 167.78125 171.574219 167.46875 172.234375 167.789062 C 172.84375 168.082031 173.132812 168.707031 173.34375 169.320312 C 173.785156 168.832031 174.316406 168.445312 174.9375 168.1875 C 175.558594 167.929688 176.472656 167.582031 176.878906 168.304688 C 177.214844 168.902344 177.210938 169.6875 176.894531 170.292969 " fill-opacity="1" fill-rule="nonzero"/></svg>