<svg xmlns="http://www.w3.org/2000/svg" xmlns:xlink="http://www.w3.org/1999/xlink" width="500" zoomAndPan="magnify" viewBox="0 0 375 374.999991" height="500" preserveAspectRatio="xMidYMid meet" version="1.0"><defs><clipPath id="3ba630a45a"><path d="M 33.015625 101 L 342.015625 101 L 342.015625 274.238281 L 33.015625 274.238281 Z M 33.015625 101 " clip-rule="nonzero"/></clipPath></defs><rect x="-37.5" width="450" fill="#ffffff" y="-37.499999" height="449.999989" fill-opacity="1"/><rect x="-37.5" width="450" fill="#ffffff" y="-37.499999" height="449.999989" fill-opacity="1"/><rect x="-37.5" width="450" fill="#ffffff" y="-37.499999" height="449.999989" fill-opacity="1"/><path fill="#0ed3e8" d="M 0 103.660156 L 0 20.152344 L 118.136719 20.152344 L 118.136719 23.085938 L 2.902344 23.085938 L 2.902344 103.660156 Z M 256.894531 20.152344 L 375 20.152344 L 375 103.660156 L 372.097656 103.660156 L 372.097656 23.085938 L 256.894531 23.085938 Z M 375 271.371094 L 375 354.847656 L 256.894531 354.847656 L 256.894531 351.914062 L 372.097656 351.914062 L 372.097656 271.371094 Z M 118.136719 354.847656 L 0 354.847656 L 0 271.371094 L 2.902344 271.371094 L 2.902344 351.914062 L 118.136719 351.914062 Z M 118.136719 354.847656 " fill-opacity="1" fill-rule="nonzero"/><path fill="#0ed3e8" d="M 20.152344 103.660156 L 20.152344 0 L 116.179688 0 L 116.179688 2.902344 L 23.085938 2.902344 L 23.085938 103.660156 Z M 258.820312 0 L 354.847656 0 L 354.847656 103.660156 L 351.914062 103.660156 L 351.914062 2.902344 L 258.820312 2.902344 Z M 354.847656 271.371094 L 354.847656 375 L 258.820312 375 L 258.820312 372.097656 L 351.914062 372.097656 L 351.914062 271.371094 Z M 116.179688 375 L 20.152344 375 L 20.152344 271.371094 L 23.085938 271.371094 L 23.085938 372.097656 L 116.179688 372.097656 Z M 116.179688 375 " fill-opacity="1" fill-rule="nonzero"/><g clip-path="url(#3ba630a45a)"><path fill="#0a0a0a" d="M 280.1875 215.09375 C 277 215.601562 272.078125 211.515625 271.859375 209.339844 C 271.738281 208.179688 275.261719 201.992188 278.351562 201.511719 C 281.417969 201.050781 283.058594 204.675781 283.496094 207.527344 C 284.050781 211.300781 283.375 214.585938 280.1875 215.09375 Z M 267.949219 186.429688 C 267.730469 185.511719 270.195312 179.445312 272.753906 178.257812 C 275.285156 177.097656 276.953125 179.660156 277.554688 181.933594 C 278.328125 184.882812 278.015625 187.78125 275.40625 189.015625 C 272.800781 190.273438 268.3125 188.191406 267.949219 186.429688 Z M 262.25 254.199219 C 260.609375 254.199219 259.28125 251.878906 259.28125 249.003906 C 259.28125 246.128906 260.609375 243.808594 262.25 243.808594 C 263.894531 243.808594 265.246094 246.128906 265.246094 249.003906 C 265.246094 251.878906 263.894531 254.199219 262.25 254.199219 Z M 260.753906 142.535156 C 262.15625 140.890625 263.507812 141.785156 264.183594 142.921875 C 265.050781 144.371094 265.269531 146.160156 263.867188 147.878906 C 262.46875 149.570312 259.453125 150.054688 258.992188 149.183594 C 258.726562 148.699219 259.355469 144.179688 260.753906 142.535156 Z M 256.410156 132.3125 C 255.566406 134.003906 253.34375 135.210938 252.859375 134.703125 C 252.59375 134.4375 252.523438 130.863281 253.367188 129.21875 C 254.210938 127.597656 255.371094 127.890625 256.023438 128.542969 C 256.867188 129.386719 257.230469 130.644531 256.410156 132.3125 Z M 267.34375 158.632812 C 269.277344 157.304688 270.726562 159.019531 271.304688 160.640625 C 272.050781 162.765625 271.980469 165.015625 270 166.367188 C 268.046875 167.746094 264.425781 166.898438 264.015625 165.617188 C 263.796875 164.941406 265.390625 159.9375 267.34375 158.632812 Z M 246.679688 127.308594 C 246.101562 127.332031 244.847656 124.554688 244.847656 122.546875 C 244.847656 120.566406 245.667969 119.839844 246.65625 119.839844 C 247.429688 119.839844 248.46875 120.566406 248.492188 122.546875 C 248.492188 124.554688 246.996094 127.308594 246.679688 127.308594 Z M 244.21875 254.199219 C 242.578125 254.199219 241.25 251.878906 241.25 249.003906 C 241.25 246.128906 242.578125 243.808594 244.21875 243.808594 C 245.859375 243.808594 247.1875 246.128906 247.1875 249.003906 C 247.1875 251.878906 245.859375 254.199219 244.21875 254.199219 Z M 238.183594 134.703125 C 237.726562 135.210938 235.503906 134.003906 234.660156 132.3125 C 233.816406 130.644531 234.175781 129.386719 235.023438 128.542969 C 235.648438 127.890625 236.832031 127.597656 237.675781 129.21875 C 238.546875 130.863281 238.449219 134.4375 238.183594 134.703125 Z M 232.078125 149.183594 C 231.59375 150.054688 228.578125 149.570312 227.175781 147.878906 C 225.777344 146.160156 225.992188 144.371094 226.863281 142.921875 C 227.539062 141.785156 228.914062 140.890625 230.289062 142.535156 C 231.691406 144.179688 232.316406 148.699219 232.078125 149.183594 Z M 226.1875 254.199219 C 224.519531 254.199219 223.191406 251.878906 223.191406 249.003906 C 223.191406 246.128906 224.519531 243.808594 226.1875 243.808594 C 227.828125 243.808594 229.15625 246.128906 229.15625 249.003906 C 229.15625 251.878906 227.828125 254.199219 226.1875 254.199219 Z M 215.636719 189.015625 C 213.03125 187.78125 212.742188 184.882812 213.511719 181.933594 C 214.066406 179.660156 215.757812 177.097656 218.292969 178.257812 C 220.875 179.445312 223.3125 185.511719 223.121094 186.429688 C 222.734375 188.191406 218.246094 190.273438 215.636719 189.015625 Z M 210.859375 215.09375 C 207.695312 214.585938 207.019531 211.300781 207.550781 207.527344 C 207.984375 204.675781 209.652344 201.050781 212.714844 201.511719 C 215.804688 201.992188 219.304688 208.179688 219.1875 209.339844 C 218.96875 211.515625 214.042969 215.601562 210.859375 215.09375 Z M 219.742188 160.640625 C 220.320312 159.019531 221.769531 157.304688 223.699219 158.632812 C 225.65625 159.9375 227.25 164.941406 227.03125 165.617188 C 226.644531 166.898438 223.023438 167.746094 221.042969 166.367188 C 219.066406 165.015625 218.992188 162.765625 219.742188 160.640625 Z M 73.910156 259.082031 C 71.28125 259.15625 68.359375 258.695312 67.925781 258.308594 C 67.949219 258.214844 68.40625 255.964844 80.355469 250.164062 L 156.6875 250.164062 C 163.351562 250.164062 168.757812 245.933594 168.757812 240.714844 C 168.757812 235.46875 163.351562 231.238281 156.6875 231.238281 L 92.8125 231.238281 C 91.847656 231.238281 91.050781 231.988281 91.050781 232.957031 C 91.050781 233.898438 91.847656 234.671875 92.8125 234.671875 L 156.6875 234.671875 C 161.296875 234.671875 165.207031 237.425781 165.207031 240.714844 C 165.207031 243.976562 161.296875 246.734375 156.6875 246.734375 L 74.851562 246.734375 C 66.960938 246.734375 60.5625 241.65625 60.5625 235.421875 C 60.5625 229.183594 66.960938 224.132812 74.851562 224.132812 L 172.859375 224.132812 C 182.78125 224.132812 190.871094 231.964844 190.871094 241.609375 C 190.871094 251.226562 182.78125 259.082031 172.859375 259.082031 Z M 82.070312 211.589844 L 155.503906 211.589844 C 161.925781 211.589844 167.140625 207.503906 167.140625 202.476562 C 167.140625 197.449219 161.925781 193.367188 155.503906 193.367188 L 94.066406 193.367188 C 93.125 193.367188 92.355469 194.089844 92.355469 195.007812 C 92.355469 195.925781 93.125 196.675781 94.066406 196.675781 L 155.503906 196.675781 C 159.945312 196.675781 163.710938 199.335938 163.710938 202.476562 C 163.710938 205.621094 159.945312 208.277344 155.503906 208.277344 L 76.785156 208.277344 C 69.179688 208.277344 63.023438 203.394531 63.023438 197.402344 C 63.023438 191.40625 69.179688 186.523438 76.785156 186.523438 L 171.074219 186.523438 C 180.632812 186.523438 188.40625 194.066406 188.40625 203.324219 C 188.40625 212.605469 180.632812 220.144531 171.074219 220.144531 L 75.867188 220.144531 C 73.355469 220.242188 70.53125 219.78125 70.121094 219.421875 C 70.121094 219.324219 70.582031 217.171875 82.070312 211.589844 Z M 308.574219 188.484375 C 313.019531 193.4375 317.796875 199.167969 319.078125 201.824219 C 320.621094 205.039062 320.621094 227.976562 319.753906 248.90625 L 306.742188 254.925781 C 311.785156 246.902344 314.371094 235.445312 314.371094 217.632812 C 314.371094 208.472656 312.148438 198.5625 308.574219 188.484375 Z M 335.515625 261.160156 L 305.679688 261.160156 L 323.375 252.96875 C 324.265625 252.558594 324.847656 251.6875 324.871094 250.71875 C 325.207031 243.253906 326.730469 205.691406 323.761719 199.554688 C 321.5625 194.984375 307.925781 179.273438 303.457031 175.84375 C 292.210938 151.09375 274.683594 126.875 262.832031 111.839844 C 274.296875 131.515625 291.507812 165.933594 295.804688 201.269531 C 298.363281 222.464844 299.28125 237.5 297.882812 248.183594 L 294.40625 260.414062 C 294.261719 260.65625 294.09375 260.894531 293.949219 261.160156 L 288.058594 261.160156 C 296.097656 247.144531 292.089844 213.835938 290.640625 201.898438 C 285.136719 156.601562 257.738281 112.6875 250.035156 101.058594 C 239.96875 114.886719 198.113281 175.042969 198.113281 217.632812 C 198.113281 237.910156 202.3125 252.195312 210.832031 261.160156 L 180.320312 261.160156 C 188.527344 258.1875 194.417969 250.574219 194.417969 241.609375 C 194.417969 232.277344 188.070312 224.472656 179.355469 221.765625 C 186.667969 218.648438 191.835938 211.566406 191.835938 203.324219 C 191.835938 192.230469 182.515625 183.214844 171.074219 183.214844 L 75.9375 183.214844 C 75.722656 183.214844 75.503906 183.261719 75.3125 183.335938 C 66.523438 183.964844 59.597656 189.980469 59.597656 197.402344 C 59.597656 204.75 66.429688 210.742188 75.09375 211.445312 C 67.152344 215.890625 66.308594 218.261719 66.789062 220.144531 C 66.984375 220.894531 67.464844 221.449219 68.09375 221.910156 C 61.625 224.132812 57.011719 229.28125 57.011719 235.421875 C 57.011719 243.058594 64.085938 249.292969 73.089844 250.042969 C 64.835938 254.660156 63.964844 257.125 64.472656 259.058594 C 64.714844 260 65.367188 260.65625 66.210938 261.160156 L 39.511719 261.160156 C 35.914062 261.160156 33.019531 264.0625 33.019531 267.664062 C 33.019531 271.265625 35.914062 274.164062 39.511719 274.164062 L 335.515625 274.164062 C 339.113281 274.164062 342.011719 271.265625 342.011719 267.664062 C 342.011719 264.0625 339.113281 261.160156 335.515625 261.160156 " fill-opacity="1" fill-rule="nonzero"/></g></svg>