<svg xmlns="http://www.w3.org/2000/svg" xmlns:xlink="http://www.w3.org/1999/xlink" width="500" zoomAndPan="magnify" viewBox="0 0 375 374.999991" height="500" preserveAspectRatio="xMidYMid meet" version="1.0"><defs><clipPath id="656aaca43e"><path d="M 77.503906 77.503906 L 297.253906 77.503906 L 297.253906 297.253906 L 77.503906 297.253906 Z M 77.503906 77.503906 " clip-rule="nonzero"/></clipPath></defs><rect x="-37.5" width="450" fill="#ffffff" y="-37.499999" height="449.999989" fill-opacity="1"/><rect x="-37.5" width="450" fill="#ffffff" y="-37.499999" height="449.999989" fill-opacity="1"/><rect x="-37.5" width="450" fill="#ffffff" y="-37.499999" height="449.999989" fill-opacity="1"/><path fill="#0ed3e8" d="M 0 103.660156 L 0 20.152344 L 118.136719 20.152344 L 118.136719 23.085938 L 2.902344 23.085938 L 2.902344 103.660156 Z M 256.894531 20.152344 L 375 20.152344 L 375 103.660156 L 372.097656 103.660156 L 372.097656 23.085938 L 256.894531 23.085938 Z M 375 271.371094 L 375 354.847656 L 256.894531 354.847656 L 256.894531 351.914062 L 372.097656 351.914062 L 372.097656 271.371094 Z M 118.136719 354.847656 L 0 354.847656 L 0 271.371094 L 2.902344 271.371094 L 2.902344 351.914062 L 118.136719 351.914062 Z M 118.136719 354.847656 " fill-opacity="1" fill-rule="nonzero"/><path fill="#0ed3e8" d="M 20.152344 103.660156 L 20.152344 0 L 116.179688 0 L 116.179688 2.902344 L 23.085938 2.902344 L 23.085938 103.660156 Z M 258.820312 0 L 354.847656 0 L 354.847656 103.660156 L 351.914062 103.660156 L 351.914062 2.902344 L 258.820312 2.902344 Z M 354.847656 271.371094 L 354.847656 375 L 258.820312 375 L 258.820312 372.097656 L 351.914062 372.097656 L 351.914062 271.371094 Z M 116.179688 375 L 20.152344 375 L 20.152344 271.371094 L 23.085938 271.371094 L 23.085938 372.097656 L 116.179688 372.097656 Z M 116.179688 375 " fill-opacity="1" fill-rule="nonzero"/><path fill="#000000" d="M 171.085938 135.425781 C 139.300781 135.425781 113.4375 161.285156 113.4375 193.074219 C 113.4375 224.859375 139.300781 250.722656 171.085938 250.722656 C 202.875 250.722656 228.734375 224.859375 228.734375 193.074219 C 228.734375 161.285156 202.875 135.425781 171.085938 135.425781 Z M 171.085938 247.234375 C 141.222656 247.234375 116.925781 222.9375 116.925781 193.074219 C 116.925781 163.210938 141.222656 138.914062 171.085938 138.914062 C 200.949219 138.914062 225.246094 163.210938 225.246094 193.074219 C 225.246094 222.9375 200.949219 247.234375 171.085938 247.234375 Z M 171.085938 247.234375 " fill-opacity="1" fill-rule="nonzero"/><path fill="#000000" d="M 201.246094 161.277344 C 201.191406 161.210938 201.128906 161.15625 201.0625 161.101562 C 198.546875 158.738281 195.753906 156.675781 192.742188 154.957031 C 192.683594 154.925781 192.636719 154.886719 192.574219 154.859375 C 190.199219 153.519531 187.683594 152.394531 185.0625 151.511719 C 185.015625 151.492188 184.972656 151.480469 184.925781 151.464844 C 180.570312 150.011719 175.921875 149.214844 171.085938 149.214844 C 150.472656 149.214844 132.882812 163.234375 128.320312 183.308594 C 128.203125 183.828125 128.324219 184.371094 128.65625 184.785156 C 128.988281 185.199219 129.492188 185.441406 130.019531 185.441406 L 147.570312 185.441406 C 150.609375 185.441406 153.078125 188.867188 153.078125 193.074219 C 153.078125 197.285156 150.609375 200.707031 147.570312 200.707031 L 130.019531 200.707031 C 129.488281 200.707031 128.988281 200.953125 128.65625 201.363281 C 128.324219 201.78125 128.199219 202.320312 128.320312 202.839844 C 132.882812 222.914062 150.472656 236.933594 171.085938 236.933594 C 175.921875 236.933594 180.570312 236.136719 184.925781 234.683594 C 184.972656 234.667969 185.015625 234.660156 185.0625 234.640625 C 187.6875 233.753906 190.199219 232.628906 192.578125 231.289062 C 192.636719 231.265625 192.679688 231.226562 192.734375 231.195312 C 195.742188 229.480469 198.53125 227.421875 201.042969 225.070312 C 201.121094 225.003906 201.195312 224.941406 201.261719 224.863281 C 209.679688 216.867188 214.945312 205.578125 214.945312 193.074219 C 214.945312 180.566406 209.675781 169.273438 201.246094 161.277344 Z M 193.671875 159.628906 C 195.269531 160.710938 196.78125 161.902344 198.207031 163.195312 L 198.207031 222.957031 C 196.785156 224.25 195.269531 225.4375 193.671875 226.519531 Z M 190.183594 228.632812 C 188.863281 229.34375 187.492188 229.980469 186.085938 230.542969 L 186.085938 155.605469 C 187.492188 156.167969 188.863281 156.804688 190.183594 157.515625 Z M 132.261719 204.195312 L 147.570312 204.195312 C 152.53125 204.195312 156.566406 199.207031 156.566406 193.074219 C 156.566406 186.941406 152.53125 181.953125 147.570312 181.953125 L 132.261719 181.953125 C 137.183594 164.621094 152.847656 152.703125 171.085938 152.703125 C 175.085938 152.703125 178.945312 153.296875 182.597656 154.386719 L 182.597656 231.765625 C 178.949219 232.851562 175.085938 233.445312 171.085938 233.445312 C 152.847656 233.445312 137.183594 221.527344 132.261719 204.195312 Z M 201.695312 219.355469 L 201.695312 166.792969 C 207.773438 173.859375 211.460938 183.042969 211.460938 193.074219 C 211.460938 203.105469 207.773438 212.285156 201.695312 219.355469 Z M 201.695312 219.355469 " fill-opacity="1" fill-rule="nonzero"/><path fill="#000000" d="M 97.039062 105.699219 C 102.371094 105.699219 106.703125 101.363281 106.703125 96.035156 C 106.703125 90.707031 102.371094 86.371094 97.039062 86.371094 C 91.710938 86.371094 87.378906 90.707031 87.378906 96.035156 C 87.378906 101.363281 91.710938 105.699219 97.039062 105.699219 Z M 97.039062 89.859375 C 100.445312 89.859375 103.214844 92.628906 103.214844 96.035156 C 103.214844 99.441406 100.445312 102.210938 97.039062 102.210938 C 93.636719 102.210938 90.863281 99.441406 90.863281 96.035156 C 90.863281 92.628906 93.636719 89.859375 97.039062 89.859375 Z M 97.039062 89.859375 " fill-opacity="1" fill-rule="nonzero"/><path fill="#000000" d="M 118.023438 106.15625 L 153.464844 106.15625 C 154.429688 106.15625 155.207031 105.375 155.207031 104.410156 L 155.207031 87.660156 C 155.207031 86.695312 154.429688 85.914062 153.464844 85.914062 L 118.023438 85.914062 C 117.0625 85.914062 116.28125 86.695312 116.28125 87.660156 L 116.28125 104.410156 C 116.28125 105.375 117.0625 106.15625 118.023438 106.15625 Z M 119.769531 89.402344 L 151.71875 89.402344 L 151.71875 102.667969 L 119.769531 102.667969 Z M 119.769531 89.402344 " fill-opacity="1" fill-rule="nonzero"/><path fill="#000000" d="M 174.019531 88.933594 C 174.019531 89.199219 173.96875 89.453125 173.867188 89.699219 C 173.765625 89.941406 173.621094 90.160156 173.433594 90.34375 C 173.25 90.53125 173.03125 90.675781 172.789062 90.777344 C 172.542969 90.878906 172.289062 90.929688 172.023438 90.929688 C 171.761719 90.929688 171.503906 90.878906 171.261719 90.777344 C 171.015625 90.675781 170.800781 90.53125 170.613281 90.34375 C 170.425781 90.160156 170.28125 89.941406 170.179688 89.699219 C 170.078125 89.453125 170.027344 89.199219 170.027344 88.933594 C 170.027344 88.667969 170.078125 88.414062 170.179688 88.171875 C 170.28125 87.925781 170.425781 87.710938 170.613281 87.523438 C 170.800781 87.335938 171.015625 87.191406 171.261719 87.089844 C 171.503906 86.988281 171.761719 86.9375 172.023438 86.9375 C 172.289062 86.9375 172.542969 86.988281 172.789062 87.089844 C 173.03125 87.191406 173.25 87.335938 173.433594 87.523438 C 173.621094 87.710938 173.765625 87.925781 173.867188 88.171875 C 173.96875 88.414062 174.019531 88.667969 174.019531 88.933594 Z M 174.019531 88.933594 " fill-opacity="1" fill-rule="nonzero"/><path fill="#000000" d="M 174.019531 101.984375 C 174.019531 102.25 173.96875 102.503906 173.867188 102.75 C 173.765625 102.992188 173.621094 103.207031 173.433594 103.394531 C 173.25 103.582031 173.03125 103.726562 172.789062 103.828125 C 172.542969 103.929688 172.289062 103.980469 172.023438 103.980469 C 171.761719 103.980469 171.503906 103.929688 171.261719 103.828125 C 171.015625 103.726562 170.800781 103.582031 170.613281 103.394531 C 170.425781 103.207031 170.28125 102.992188 170.179688 102.75 C 170.078125 102.503906 170.027344 102.25 170.027344 101.984375 C 170.027344 101.71875 170.078125 101.464844 170.179688 101.222656 C 170.28125 100.976562 170.425781 100.761719 170.613281 100.574219 C 170.800781 100.386719 171.015625 100.242188 171.261719 100.140625 C 171.503906 100.039062 171.761719 99.988281 172.023438 99.988281 C 172.289062 99.988281 172.542969 100.039062 172.789062 100.140625 C 173.03125 100.242188 173.25 100.386719 173.433594 100.574219 C 173.621094 100.761719 173.765625 100.976562 173.867188 101.222656 C 173.96875 101.464844 174.019531 101.71875 174.019531 101.984375 Z M 174.019531 101.984375 " fill-opacity="1" fill-rule="nonzero"/><path fill="#000000" d="M 187.605469 88.933594 C 187.605469 89.199219 187.554688 89.453125 187.453125 89.699219 C 187.351562 89.941406 187.207031 90.160156 187.019531 90.34375 C 186.835938 90.53125 186.617188 90.675781 186.375 90.777344 C 186.128906 90.878906 185.875 90.929688 185.609375 90.929688 C 185.347656 90.929688 185.089844 90.878906 184.847656 90.777344 C 184.601562 90.675781 184.386719 90.53125 184.199219 90.34375 C 184.011719 90.160156 183.867188 89.941406 183.765625 89.699219 C 183.664062 89.453125 183.617188 89.199219 183.617188 88.933594 C 183.617188 88.667969 183.664062 88.414062 183.765625 88.171875 C 183.867188 87.925781 184.011719 87.710938 184.199219 87.523438 C 184.386719 87.335938 184.601562 87.191406 184.847656 87.089844 C 185.089844 86.988281 185.347656 86.9375 185.609375 86.9375 C 185.875 86.9375 186.128906 86.988281 186.375 87.089844 C 186.617188 87.191406 186.835938 87.335938 187.019531 87.523438 C 187.207031 87.710938 187.351562 87.925781 187.453125 88.171875 C 187.554688 88.414062 187.605469 88.667969 187.605469 88.933594 Z M 187.605469 88.933594 " fill-opacity="1" fill-rule="nonzero"/><path fill="#000000" d="M 187.605469 101.984375 C 187.605469 102.25 187.554688 102.503906 187.453125 102.75 C 187.351562 102.992188 187.207031 103.207031 187.019531 103.394531 C 186.835938 103.582031 186.617188 103.726562 186.375 103.828125 C 186.128906 103.929688 185.875 103.980469 185.609375 103.980469 C 185.347656 103.980469 185.089844 103.929688 184.847656 103.828125 C 184.601562 103.726562 184.386719 103.582031 184.199219 103.394531 C 184.011719 103.207031 183.867188 102.992188 183.765625 102.75 C 183.664062 102.503906 183.617188 102.25 183.617188 101.984375 C 183.617188 101.71875 183.664062 101.464844 183.765625 101.222656 C 183.867188 100.976562 184.011719 100.761719 184.199219 100.574219 C 184.386719 100.386719 184.601562 100.242188 184.847656 100.140625 C 185.089844 100.039062 185.347656 99.988281 185.609375 99.988281 C 185.875 99.988281 186.128906 100.039062 186.375 100.140625 C 186.617188 100.242188 186.835938 100.386719 187.019531 100.574219 C 187.207031 100.761719 187.351562 100.976562 187.453125 101.222656 C 187.554688 101.464844 187.605469 101.71875 187.605469 101.984375 Z M 187.605469 101.984375 " fill-opacity="1" fill-rule="nonzero"/><path fill="#000000" d="M 201.195312 88.933594 C 201.195312 89.199219 201.144531 89.453125 201.042969 89.699219 C 200.941406 89.941406 200.796875 90.160156 200.609375 90.34375 C 200.421875 90.53125 200.207031 90.675781 199.960938 90.777344 C 199.71875 90.878906 199.464844 90.929688 199.199219 90.929688 C 198.933594 90.929688 198.679688 90.878906 198.433594 90.777344 C 198.191406 90.675781 197.976562 90.53125 197.789062 90.34375 C 197.601562 90.160156 197.457031 89.941406 197.355469 89.699219 C 197.253906 89.453125 197.203125 89.199219 197.203125 88.933594 C 197.203125 88.667969 197.253906 88.414062 197.355469 88.171875 C 197.457031 87.925781 197.601562 87.710938 197.789062 87.523438 C 197.976562 87.335938 198.191406 87.191406 198.433594 87.089844 C 198.679688 86.988281 198.933594 86.9375 199.199219 86.9375 C 199.464844 86.9375 199.71875 86.988281 199.960938 87.089844 C 200.207031 87.191406 200.421875 87.335938 200.609375 87.523438 C 200.796875 87.710938 200.941406 87.925781 201.042969 88.171875 C 201.144531 88.414062 201.195312 88.667969 201.195312 88.933594 Z M 201.195312 88.933594 " fill-opacity="1" fill-rule="nonzero"/><path fill="#000000" d="M 201.195312 101.984375 C 201.195312 102.25 201.144531 102.503906 201.042969 102.75 C 200.941406 102.992188 200.796875 103.207031 200.609375 103.394531 C 200.421875 103.582031 200.207031 103.726562 199.960938 103.828125 C 199.71875 103.929688 199.464844 103.980469 199.199219 103.980469 C 198.933594 103.980469 198.679688 103.929688 198.433594 103.828125 C 198.191406 103.726562 197.976562 103.582031 197.789062 103.394531 C 197.601562 103.207031 197.457031 102.992188 197.355469 102.75 C 197.253906 102.503906 197.203125 102.25 197.203125 101.984375 C 197.203125 101.71875 197.253906 101.464844 197.355469 101.222656 C 197.457031 100.976562 197.601562 100.761719 197.789062 100.574219 C 197.976562 100.386719 198.191406 100.242188 198.433594 100.140625 C 198.679688 100.039062 198.933594 99.988281 199.199219 99.988281 C 199.464844 99.988281 199.71875 100.039062 199.960938 100.140625 C 200.207031 100.242188 200.421875 100.386719 200.609375 100.574219 C 200.796875 100.761719 200.941406 100.976562 201.042969 101.222656 C 201.144531 101.464844 201.195312 101.71875 201.195312 101.984375 Z M 201.195312 101.984375 " fill-opacity="1" fill-rule="nonzero"/><path fill="#000000" d="M 212.785156 90.929688 C 213.886719 90.929688 214.78125 90.035156 214.78125 88.933594 C 214.78125 87.835938 213.886719 86.941406 212.785156 86.941406 C 211.6875 86.941406 210.792969 87.835938 210.792969 88.9375 C 210.792969 90.035156 211.6875 90.929688 212.785156 90.929688 Z M 212.785156 90.929688 " fill-opacity="1" fill-rule="nonzero"/><path fill="#000000" d="M 212.785156 103.980469 C 213.886719 103.980469 214.78125 103.085938 214.78125 101.984375 C 214.78125 100.882812 213.886719 99.988281 212.785156 99.988281 C 211.6875 99.988281 210.792969 100.882812 210.792969 101.984375 C 210.792969 103.085938 211.6875 103.980469 212.785156 103.980469 Z M 212.785156 103.980469 " fill-opacity="1" fill-rule="nonzero"/><path fill="#000000" d="M 228.367188 88.933594 C 228.367188 89.199219 228.316406 89.453125 228.214844 89.699219 C 228.113281 89.941406 227.96875 90.160156 227.785156 90.34375 C 227.597656 90.53125 227.378906 90.675781 227.136719 90.777344 C 226.890625 90.878906 226.636719 90.929688 226.371094 90.929688 C 226.109375 90.929688 225.851562 90.878906 225.609375 90.777344 C 225.363281 90.675781 225.148438 90.53125 224.960938 90.34375 C 224.773438 90.160156 224.628906 89.941406 224.527344 89.699219 C 224.429688 89.453125 224.378906 89.199219 224.378906 88.933594 C 224.378906 88.667969 224.429688 88.414062 224.527344 88.171875 C 224.628906 87.925781 224.773438 87.710938 224.960938 87.523438 C 225.148438 87.335938 225.363281 87.191406 225.609375 87.089844 C 225.851562 86.988281 226.109375 86.9375 226.371094 86.9375 C 226.636719 86.9375 226.890625 86.988281 227.136719 87.089844 C 227.378906 87.191406 227.597656 87.335938 227.785156 87.523438 C 227.96875 87.710938 228.113281 87.925781 228.214844 88.171875 C 228.316406 88.414062 228.367188 88.667969 228.367188 88.933594 Z M 228.367188 88.933594 " fill-opacity="1" fill-rule="nonzero"/><path fill="#000000" d="M 228.367188 101.984375 C 228.367188 102.25 228.316406 102.503906 228.214844 102.75 C 228.113281 102.992188 227.96875 103.207031 227.785156 103.394531 C 227.597656 103.582031 227.378906 103.726562 227.136719 103.828125 C 226.890625 103.929688 226.636719 103.980469 226.371094 103.980469 C 226.109375 103.980469 225.851562 103.929688 225.609375 103.828125 C 225.363281 103.726562 225.148438 103.582031 224.960938 103.394531 C 224.773438 103.207031 224.628906 102.992188 224.527344 102.75 C 224.429688 102.503906 224.378906 102.25 224.378906 101.984375 C 224.378906 101.71875 224.429688 101.464844 224.527344 101.222656 C 224.628906 100.976562 224.773438 100.761719 224.960938 100.574219 C 225.148438 100.386719 225.363281 100.242188 225.609375 100.140625 C 225.851562 100.039062 226.109375 99.988281 226.371094 99.988281 C 226.636719 99.988281 226.890625 100.039062 227.136719 100.140625 C 227.378906 100.242188 227.597656 100.386719 227.785156 100.574219 C 227.96875 100.761719 228.113281 100.976562 228.214844 101.222656 C 228.316406 101.464844 228.367188 101.71875 228.367188 101.984375 Z M 228.367188 101.984375 " fill-opacity="1" fill-rule="nonzero"/><path fill="#000000" d="M 241.957031 88.933594 C 241.957031 89.199219 241.90625 89.453125 241.804688 89.699219 C 241.703125 89.941406 241.558594 90.160156 241.371094 90.34375 C 241.183594 90.53125 240.96875 90.675781 240.722656 90.777344 C 240.480469 90.878906 240.226562 90.929688 239.960938 90.929688 C 239.695312 90.929688 239.441406 90.878906 239.195312 90.777344 C 238.953125 90.675781 238.738281 90.53125 238.550781 90.34375 C 238.363281 90.160156 238.21875 89.941406 238.117188 89.699219 C 238.015625 89.453125 237.964844 89.199219 237.964844 88.933594 C 237.964844 88.667969 238.015625 88.414062 238.117188 88.171875 C 238.21875 87.925781 238.363281 87.710938 238.550781 87.523438 C 238.738281 87.335938 238.953125 87.191406 239.195312 87.089844 C 239.441406 86.988281 239.695312 86.9375 239.960938 86.9375 C 240.226562 86.9375 240.480469 86.988281 240.722656 87.089844 C 240.96875 87.191406 241.183594 87.335938 241.371094 87.523438 C 241.558594 87.710938 241.703125 87.925781 241.804688 88.171875 C 241.90625 88.414062 241.957031 88.667969 241.957031 88.933594 Z M 241.957031 88.933594 " fill-opacity="1" fill-rule="nonzero"/><path fill="#000000" d="M 241.957031 101.984375 C 241.957031 102.25 241.90625 102.503906 241.804688 102.75 C 241.703125 102.992188 241.558594 103.207031 241.371094 103.394531 C 241.183594 103.582031 240.96875 103.726562 240.722656 103.828125 C 240.480469 103.929688 240.226562 103.980469 239.960938 103.980469 C 239.695312 103.980469 239.441406 103.929688 239.195312 103.828125 C 238.953125 103.726562 238.738281 103.582031 238.550781 103.394531 C 238.363281 103.207031 238.21875 102.992188 238.117188 102.75 C 238.015625 102.503906 237.964844 102.25 237.964844 101.984375 C 237.964844 101.71875 238.015625 101.464844 238.117188 101.222656 C 238.21875 100.976562 238.363281 100.761719 238.550781 100.574219 C 238.738281 100.386719 238.953125 100.242188 239.195312 100.140625 C 239.441406 100.039062 239.695312 99.988281 239.960938 99.988281 C 240.226562 99.988281 240.480469 100.039062 240.722656 100.140625 C 240.96875 100.242188 241.183594 100.386719 241.371094 100.574219 C 241.558594 100.761719 241.703125 100.976562 241.804688 101.222656 C 241.90625 101.464844 241.957031 101.71875 241.957031 101.984375 Z M 241.957031 101.984375 " fill-opacity="1" fill-rule="nonzero"/><path fill="#000000" d="M 255.542969 88.933594 C 255.542969 89.199219 255.492188 89.453125 255.390625 89.699219 C 255.289062 89.941406 255.144531 90.160156 254.957031 90.34375 C 254.769531 90.53125 254.554688 90.675781 254.308594 90.777344 C 254.066406 90.878906 253.8125 90.929688 253.546875 90.929688 C 253.28125 90.929688 253.027344 90.878906 252.78125 90.777344 C 252.539062 90.675781 252.324219 90.53125 252.136719 90.34375 C 251.949219 90.160156 251.804688 89.941406 251.703125 89.699219 C 251.601562 89.453125 251.550781 89.199219 251.550781 88.933594 C 251.550781 88.667969 251.601562 88.414062 251.703125 88.171875 C 251.804688 87.925781 251.949219 87.710938 252.136719 87.523438 C 252.324219 87.335938 252.539062 87.191406 252.78125 87.089844 C 253.027344 86.988281 253.28125 86.9375 253.546875 86.9375 C 253.8125 86.9375 254.066406 86.988281 254.308594 87.089844 C 254.554688 87.191406 254.769531 87.335938 254.957031 87.523438 C 255.144531 87.710938 255.289062 87.925781 255.390625 88.171875 C 255.492188 88.414062 255.542969 88.667969 255.542969 88.933594 Z M 255.542969 88.933594 " fill-opacity="1" fill-rule="nonzero"/><path fill="#000000" d="M 255.542969 101.984375 C 255.542969 102.25 255.492188 102.503906 255.390625 102.75 C 255.289062 102.992188 255.144531 103.207031 254.957031 103.394531 C 254.769531 103.582031 254.554688 103.726562 254.308594 103.828125 C 254.066406 103.929688 253.8125 103.980469 253.546875 103.980469 C 253.28125 103.980469 253.027344 103.929688 252.78125 103.828125 C 252.539062 103.726562 252.324219 103.582031 252.136719 103.394531 C 251.949219 103.207031 251.804688 102.992188 251.703125 102.75 C 251.601562 102.503906 251.550781 102.25 251.550781 101.984375 C 251.550781 101.71875 251.601562 101.464844 251.703125 101.222656 C 251.804688 100.976562 251.949219 100.761719 252.136719 100.574219 C 252.324219 100.386719 252.539062 100.242188 252.78125 100.140625 C 253.027344 100.039062 253.28125 99.988281 253.546875 99.988281 C 253.8125 99.988281 254.066406 100.039062 254.308594 100.140625 C 254.554688 100.242188 254.769531 100.386719 254.957031 100.574219 C 255.144531 100.761719 255.289062 100.976562 255.390625 101.222656 C 255.492188 101.464844 255.542969 101.71875 255.542969 101.984375 Z M 255.542969 101.984375 " fill-opacity="1" fill-rule="nonzero"/><g clip-path="url(#656aaca43e)"><path fill="#000000" d="M 296.789062 245.847656 C 296.460938 245.492188 295.996094 245.289062 295.511719 245.289062 L 294.195312 245.289062 C 294.0625 233.484375 289 225.046875 280.121094 222.019531 C 275.710938 220.511719 270.140625 220.589844 264.667969 221.816406 L 264.667969 79.25 C 264.667969 78.285156 263.886719 77.503906 262.921875 77.503906 L 79.25 77.503906 C 78.285156 77.503906 77.503906 78.285156 77.503906 79.25 L 77.503906 277.421875 C 77.503906 278.386719 78.285156 279.167969 79.25 279.167969 L 221.261719 279.167969 L 222.535156 295.644531 C 222.605469 296.554688 223.363281 297.253906 224.273438 297.253906 L 291.769531 297.253906 C 292.679688 297.253906 293.441406 296.554688 293.507812 295.644531 L 297.25 247.167969 C 297.289062 246.683594 297.121094 246.207031 296.789062 245.847656 Z M 278.996094 225.320312 C 288.777344 228.660156 290.628906 238.625 290.710938 245.289062 L 267.132812 245.289062 C 266.816406 243.425781 265.902344 240.398438 263.257812 237.707031 C 260.328125 234.722656 256.085938 232.964844 250.660156 232.421875 C 257.480469 226.101562 270.773438 222.515625 278.996094 225.320312 Z M 246.945312 235.710938 C 253.191406 235.710938 257.828125 237.1875 260.722656 240.101562 C 262.527344 241.917969 263.265625 243.910156 263.578125 245.289062 L 226.78125 245.289062 C 228.871094 241.855469 234.351562 235.710938 246.945312 235.710938 Z M 261.179688 109.910156 L 163.136719 109.910156 L 163.136719 80.992188 L 261.179688 80.992188 Z M 159.648438 80.992188 L 159.648438 109.910156 L 80.992188 109.910156 L 80.992188 80.992188 Z M 80.992188 275.679688 L 80.992188 113.398438 L 261.179688 113.398438 L 261.179688 222.746094 C 255.035156 224.695312 249.398438 228.070312 246.082031 232.261719 C 230.070312 232.597656 224.363281 241.894531 222.824219 245.289062 L 220.53125 245.289062 C 220.046875 245.289062 219.582031 245.492188 219.253906 245.851562 C 218.921875 246.207031 218.757812 246.683594 218.792969 247.167969 L 220.992188 275.679688 Z M 290.15625 293.769531 L 225.886719 293.769531 L 222.414062 248.777344 L 223.988281 248.777344 C 223.992188 248.777344 223.992188 248.777344 223.996094 248.777344 C 223.996094 248.777344 224 248.777344 224 248.777344 L 293.628906 248.777344 Z M 290.15625 293.769531 " fill-opacity="1" fill-rule="nonzero"/></g><path fill="#000000" d="M 269.179688 254.890625 L 246.863281 254.890625 C 243.980469 254.890625 241.632812 257.238281 241.632812 260.125 L 241.632812 260.625 C 241.632812 263.507812 243.980469 265.855469 246.863281 265.855469 L 269.179688 265.855469 C 272.0625 265.855469 274.410156 263.507812 274.410156 260.625 L 274.410156 260.125 C 274.410156 257.238281 272.066406 254.890625 269.179688 254.890625 Z M 270.921875 260.625 C 270.921875 261.585938 270.140625 262.367188 269.179688 262.367188 L 246.863281 262.367188 C 245.902344 262.367188 245.121094 261.585938 245.121094 260.625 L 245.121094 260.125 C 245.121094 259.164062 245.902344 258.378906 246.863281 258.378906 L 269.179688 258.378906 C 270.140625 258.378906 270.921875 259.164062 270.921875 260.125 Z M 270.921875 260.625 " fill-opacity="1" fill-rule="nonzero"/></svg>